<?xml version="1.0" encoding="UTF-8" standalone="no"?>
<!-- Created with Inkscape (http://www.inkscape.org/) -->

<svg version="1.1" id="svg2" width="886.01331" height="891.59998" viewBox="0 0 886.01331 891.59998" sodipodi:docname="reshot-illustration-woman-in-the-park-S5JGUWLD92.eps"
	xmlns:inkscape="http://www.inkscape.org/namespaces/inkscape"
	xmlns:sodipodi="http://sodipodi.sourceforge.net/DTD/sodipodi-0.dtd"
	xmlns="http://www.w3.org/2000/svg"
	xmlns:svg="http://www.w3.org/2000/svg">
	<defs id="defs6">
		<clipPath clipPathUnits="userSpaceOnUse" id="clipPath18">
			<path d="m 4155.82,5117.26 h 859.371 v 859.801 H 4155.82 Z" id="path16" />
		</clipPath>
		<clipPath clipPathUnits="userSpaceOnUse" id="clipPath28">
			<path d="m 855.117,0 h 5220 v 6478.25 h -5220 z" id="path26" />
		</clipPath>
		<clipPath clipPathUnits="userSpaceOnUse" id="clipPath244">
			<path d="m 385.121,6446.99 h 740 v 240 h -740 z" id="path242" />
		</clipPath>
		<clipPath clipPathUnits="userSpaceOnUse" id="clipPath256">
			<path d="m 6195,4856 v 371 h 450 v -371 z" id="path254" />
		</clipPath>
		<clipPath clipPathUnits="userSpaceOnUse" id="clipPath272">
			<path d="m 0,2941.4 h 554.586 v 142.922 H 0 Z" id="path270" />
		</clipPath>
	</defs>
	<sodipodi:namedview id="namedview4" pagecolor="#ffffff" bordercolor="#000000" borderopacity="0.25" inkscape:showpageshadow="2" inkscape:pageopacity="0.0" inkscape:pagecheckerboard="0" inkscape:deskcolor="#d1d1d1" />
	<g id="g8" inkscape:groupmode="layer" inkscape:label="ink_ext_XXXXXX" transform="matrix(1.3333333,0,0,-1.3333333,0,891.6)">
		<g id="g10" transform="scale(0.1)">
			<g id="g12">
				<g id="g14" clip-path="url(#clipPath18)">
					<path d="m 4602.57,5117.26 345.99,199.75 c -36.01,-57.01 -85.99,-106.36 -148.44,-142.41 -62.45,-36.05 -130.18,-54.67 -197.55,-57.34 m -92.03,6.23 c -20.77,3.68 -41.25,8.86 -61.26,15.52 l 364.25,210.3 38.66,-28.57 -341.65,-197.25 m -120.89,40.44 c -15.03,7.65 -29.65,16.2 -43.75,25.63 l 300.38,173.43 20.58,-39 -277.21,-160.06 m -87.92,59.5 c -11.41,9.99 -22.35,20.66 -32.76,31.96 l 229.59,132.55 0.05,-1.68 122.9,23.69 0.77,-1.46 -320.55,-185.06 m -65.63,72.34 c -8.31,11.56 -16.11,23.64 -23.37,36.22 l -0.51,0.88 282.65,163.19 1.7,-49.9 -260.47,-150.39 m 673.47,58.1 29.58,56.08 50.18,-9.67 c -0.06,-0.15 -0.11,-0.3 -0.17,-0.45 l -79.59,-45.96 m -720.32,25.11 c -5.89,13.84 -11.01,27.86 -15.35,42 l 207.33,119.7 60.61,-15.86 -252.59,-145.84 m -27.86,94.15 c -2.76,15.85 -4.61,31.76 -5.57,47.66 v 0 l 254.75,147.08 12.78,-10.84 -19.22,-43.75 -242.74,-140.15 m -5,107.35 c 1.47,18.69 4.17,37.25 8.05,55.54 l 168.8,97.46 35.7,-30.29 -212.55,-122.71 m 30.01,127.56 c 34.65,85.96 97.22,161.41 183.72,211.34 2.44,1.41 4.88,2.79 7.34,4.15 l 36.86,-83.9 -227.92,-131.59 m 244.21,240.3 c 20.98,8.1 42.32,14.45 63.83,19.1 l -0.08,-2.41 -63.75,-16.69" style="fill:#fbf26f;fill-opacity:1;fill-rule:nonzero;stroke:none" id="path20" />
				</g>
			</g>
			<g id="g22">
				<g id="g24" clip-path="url(#clipPath28)">
					<path d="m 2116.93,1732.79 c -198.84,0 -375.15,96.43 -484.47,244.96 267.91,82.68 452.1,347.78 416.69,641.82 l -63.37,517 c 87.19,159.93 245.33,275.75 432.28,305.6 l -93.22,-799.04 -95.7,93.02 c -3.89,3.77 -8.92,5.66 -13.94,5.66 -5.21,0 -10.42,-2.03 -14.35,-6.07 -7.69,-7.92 -7.51,-20.58 0.41,-28.28 l 117.73,-114.43 -77.64,-665.52 c 0,0 78.57,-43.59 210.48,-92.85 -95.72,-64.25 -210.96,-101.87 -334.9,-101.87" style="fill:#96dabd;fill-opacity:1;fill-rule:nonzero;stroke:none" id="path30" />
					<path d="m 1435.31,1951.53 c -349.01,11.39 -615.802,319.37 -572.994,668.04 l 106.321,867.34 c 30.074,245.46 238.893,430.08 487.093,430.08 247.8,0 457.04,-184.62 487.11,-430.08 l 42.94,-350.34 63.37,-517 c 35.41,-294.04 -148.78,-559.14 -416.69,-641.82 -49.77,-15.36 -102.46,-24.43 -157.15,-26.22 v 651.1 l 275.83,358.35 c 6.74,8.76 5.11,21.31 -3.65,28.05 -3.63,2.8 -7.92,4.15 -12.18,4.15 -6,0 -11.92,-2.68 -15.86,-7.8 l -244.14,-317.17 v 549.16 c 0,11.05 -8.95,20 -20,20 -11.04,0 -20,-8.95 -20,-20 v -607.72 c 0,-0.14 0,-0.28 0,-0.42 v -344.92 l -229.67,232.02 c -3.91,3.95 -9.06,5.93 -14.21,5.93 -5.09,0 -10.17,-1.92 -14.07,-5.78 -7.85,-7.77 -7.92,-20.44 -0.15,-28.29 l 258.1,-260.73 v -255.93" style="fill:#c2ead9;fill-opacity:1;fill-rule:nonzero;stroke:none" id="path32" />
					<path d="m 1475.31,966.988 h -40 V 2207.46 l 5.79,-5.85 c 3.91,-3.95 9.06,-5.93 14.21,-5.93 5.09,0 10.18,1.93 14.08,5.79 7.84,7.77 7.91,20.43 0.14,28.28 l -34.22,34.56 v 344.92 c 0.07,-5.92 2.75,-11.75 7.81,-15.65 3.63,-2.79 7.92,-4.15 12.18,-4.15 6,0 11.92,2.68 15.86,7.8 l 4.15,5.4 v -651.1 -984.542 m -40,1642.662 v 607.72 c 0,11.05 8.96,20 20,20 11.05,0 20,-8.95 20,-20 v -549.16 l -35.84,-46.58 c -2.76,-3.58 -4.11,-7.79 -4.16,-11.98" style="fill:#100f0d;fill-opacity:1;fill-rule:nonzero;stroke:none" id="path34" />
					<path d="m 1455.3,2589.43 c -4.26,0 -8.55,1.36 -12.18,4.15 -5.06,3.9 -7.74,9.73 -7.81,15.65 0,0.14 0,0.28 0,0.42 0.05,4.19 1.4,8.4 4.16,11.98 l 35.84,46.58 244.14,317.17 c 3.94,5.12 9.86,7.8 15.86,7.8 4.26,0 8.55,-1.35 12.18,-4.15 8.76,-6.74 10.39,-19.29 3.65,-28.05 l -275.83,-358.35 -4.15,-5.4 c -3.94,-5.12 -9.86,-7.8 -15.86,-7.8" style="fill:#100f0d;fill-opacity:1;fill-rule:nonzero;stroke:none" id="path36" />
					<path d="m 1455.31,2195.68 c -5.15,0 -10.3,1.98 -14.21,5.93 l -5.79,5.85 -258.1,260.73 c -7.77,7.85 -7.7,20.52 0.15,28.29 3.9,3.86 8.98,5.78 14.07,5.78 5.15,0 10.3,-1.98 14.21,-5.93 l 229.67,-232.02 34.22,-34.56 c 7.77,-7.85 7.7,-20.51 -0.14,-28.28 -3.9,-3.86 -8.99,-5.79 -14.08,-5.79" style="fill:#100f0d;fill-opacity:1;fill-rule:nonzero;stroke:none" id="path38" />
					<path d="m 2533.81,966.988 h -40 v 852.472 c 12.94,-4.54 26.25,-9.08 40,-13.63 V 966.988" style="fill:#100f0d;fill-opacity:1;fill-rule:nonzero;stroke:none" id="path40" />
					<path d="m 2318.99,2593.03 -117.73,114.43 c -7.92,7.7 -8.1,20.36 -0.41,28.28 3.93,4.04 9.14,6.07 14.35,6.07 5.02,0 10.05,-1.89 13.94,-5.66 l 95.7,-93.02 -5.85,-50.1" style="fill:#100f0d;fill-opacity:1;fill-rule:nonzero;stroke:none" id="path42" />
					<path d="m 5475.8,1732.79 c -142.33,0 -273.14,49.81 -376.01,132.72 v 314.66 l 365.94,286.34 c 8.69,6.81 10.23,19.38 3.42,28.08 -3.94,5.04 -9.82,7.67 -15.76,7.67 -4.32,0 -8.66,-1.38 -12.31,-4.25 l -341.29,-267.05 v 427.48 c 0,11.04 -8.96,20 -20,20 -11.05,0 -20,-8.96 -20,-20 v -179.47 l -264.02,257.16 c -3.89,3.79 -8.92,5.68 -13.95,5.68 -5.21,0 -10.41,-2.03 -14.33,-6.05 -7.71,-7.91 -7.54,-20.57 0.37,-28.28 l 291.93,-284.35 v -557.62 c -102.89,-82.91 -233.69,-132.72 -376.03,-132.72 -198.41,0 -374.33,96.43 -483.41,244.96 140.5,43.45 257.92,137.29 332.59,259.24 h 62.18 v 138.53 c 23.14,76.46 31.24,159.04 21.02,244.05 l -21.02,171.89 v 95.53 c 11.04,0 20,8.96 20,20 0,11.05 -8.96,20 -20,20 v 0 120 h -31.26 l -10.96,89.59 c 101.52,186.6 299.38,313.16 526.89,313.16 315.71,0 574.37,-244.19 597.61,-553.45 232.05,-82.8 397.72,-304.18 397.72,-564.43 v 0 c 0,-330.8 -268.38,-599.07 -599.32,-599.07" style="fill:#96dabd;fill-opacity:1;fill-rule:nonzero;stroke:none" id="path44" />
					<path d="m 4043.59,1951.54 v 263.99 c 0,0.1 0,0.2 0,0.3 v 21.16 h 61.53 v 445.64 -445.64 h 427.82 c -74.67,-121.95 -192.09,-215.79 -332.59,-259.24 -49.67,-15.37 -102.2,-24.43 -156.76,-26.21 m -40,56.58 -24.8,224.46 24.8,-25.11 v -199.35 m 591.53,367.4 v 415.94 l 21.02,-171.89 c 10.22,-85.01 2.12,-167.59 -21.02,-244.05 m -31.26,671.47 h -288.74 v 163.82 c 0,86.11 -70.53,156.18 -157.21,156.18 h -4.43 c -1.78,12.54 -4.89,25.1 -8.69,37.42 -9.06,29.24 -22.27,57.15 -33.23,78.03 -7.29,13.87 -13.6,24.59 -17.08,30.32 36.96,9.91 77.48,24.63 120.64,46.13 0,0 -44.59,159.8 -95.88,355 222.5,-25.1 403.07,-200.04 430.81,-426.98 l 42.85,-350.33 10.96,-89.59 m -375.84,0 h -82.9 v 0 h -61.53 v 151.8 c 5.83,7.85 10.19,17.02 13.64,27.07 5.11,15.14 7.88,32.53 7.89,51.13 0,1.02 -0.01,2.03 -0.03,3.05 h 52.82 c 38.66,0 70.11,-31.24 70.11,-69.65 v -163.4 m -184.43,0 H 3888.8 l -15.56,140.82 c 7.82,1.61 14.82,5.45 20.37,10.2 4.41,3.8 8.21,8.14 11.51,12.92 3.29,-4.79 7.07,-9.14 11.51,-12.92 7.38,-6.32 17.34,-11.02 28.37,-11.02 0.04,0 0.08,0 0.12,0 0.04,0 0.08,0 0.12,0 9.18,0 17.61,3.25 24.44,7.99 2.12,-2.49 4.43,-4.83 6.95,-6.97 7.06,-6.05 16.5,-10.61 26.96,-10.99 v -130.03" style="fill:#c2ead9;fill-opacity:1;fill-rule:nonzero;stroke:none" id="path46" />
					<path d="m 4043.59,966.988 h -40 v 955.042 c 2.96,1.81 5.94,3.64 8.9,5.48 l -8.9,80.61 v 199.35 l 5.77,-5.84 c 3.91,-3.96 9.07,-5.95 14.23,-5.95 5.08,0 10.15,1.92 14.05,5.77 3.92,3.88 5.91,8.97 5.95,14.08 V 1951.54 966.988 m 0,1248.842 c -0.04,5.03 -1.96,10.05 -5.77,13.91 l -7.17,7.25 h 12.94 v -21.16 m 0,831.16 h -40 v 130.03 c 0.46,-0.02 0.93,-0.03 1.41,-0.03 0.04,0 0.08,0 0.12,0 0.04,0 0.08,0 0.12,0 11.03,0 20.99,4.7 28.37,11.02 3.74,3.22 7.05,6.83 9.98,10.78 v -151.8" style="fill:#100f0d;fill-opacity:1;fill-rule:nonzero;stroke:none" id="path48" />
					<path d="m 4023.59,2195.68 c -5.16,0 -10.32,1.99 -14.23,5.95 l -5.77,5.84 -24.8,25.11 -0.49,4.41 h 52.35 l 7.17,-7.25 c 3.81,-3.86 5.73,-8.88 5.77,-13.91 0,-0.1 0,-0.2 0,-0.3 -0.04,-5.11 -2.03,-10.2 -5.95,-14.08 -3.9,-3.85 -8.97,-5.77 -14.05,-5.77" style="fill:#100f0d;fill-opacity:1;fill-rule:nonzero;stroke:none" id="path50" />
					<path d="m 5099.79,966.988 h -40 V 2423.13 l 6.04,-5.89 c 3.89,-3.78 8.93,-5.67 13.96,-5.67 5.2,0 10.4,2.02 14.32,6.04 7.71,7.92 7.54,20.58 -0.37,28.29 l -33.95,33.07 v 179.47 c 0,11.04 8.95,20 20,20 11.04,0 20,-8.96 20,-20 v -427.48 l -32.33,-25.3 c -8.7,-6.81 -10.23,-19.38 -3.42,-28.07 3.94,-5.05 9.82,-7.68 15.76,-7.68 4.31,0 8.65,1.39 12.31,4.25 l 7.68,6.01 V 1865.51 966.988" style="fill:#100f0d;fill-opacity:1;fill-rule:nonzero;stroke:none" id="path52" />
					<path d="m 5079.8,2169.91 c -5.94,0 -11.82,2.63 -15.76,7.68 -6.81,8.69 -5.28,21.26 3.42,28.07 l 32.33,25.3 341.29,267.05 c 3.65,2.87 7.99,4.25 12.31,4.25 5.94,0 11.82,-2.63 15.76,-7.67 6.81,-8.7 5.27,-21.27 -3.42,-28.08 l -365.94,-286.34 -7.68,-6.01 c -3.66,-2.86 -8,-4.25 -12.31,-4.25" style="fill:#100f0d;fill-opacity:1;fill-rule:nonzero;stroke:none" id="path54" />
					<path d="m 5079.79,2411.57 c -5.03,0 -10.07,1.89 -13.96,5.67 l -6.04,5.89 -291.93,284.35 c -7.91,7.71 -8.08,20.37 -0.37,28.28 3.92,4.02 9.12,6.05 14.33,6.05 5.03,0 10.06,-1.89 13.95,-5.68 l 264.02,-257.16 33.95,-33.07 c 7.91,-7.71 8.08,-20.37 0.37,-28.29 -3.92,-4.02 -9.12,-6.04 -14.32,-6.04" style="fill:#100f0d;fill-opacity:1;fill-rule:nonzero;stroke:none" id="path56" />
					<path d="M 5685.12,926.988 H 3795.07 l 1.99,40 h 1888.06 c 11.04,0 20,-8.949 20,-20 0,-11.039 -8.96,-20 -20,-20 m -2269.88,0 h -408.82 l 1.98,40 h 406.17 l 0.67,-40 m -786.78,0 H 1145.12 c -11.05,0 -20,8.961 -20,20 0,11.051 8.95,20 20,20 h 290.19 40 1018.5 40 93.99 l 0.66,-40" style="fill:#100f0d;fill-opacity:1;fill-rule:nonzero;stroke:none" id="path58" />
					<path d="m 3233.4,0 c -181.16,0 -489.56,57.0117 -614.47,168.449 0,0 -1.06,17.891 0.41,49.141 118.06,-73.039 254.09,-113.899 378.36,-136.8712 127.63,-23.5469 242.95,-28.129 313.91,-28.129 34.21,0 58.1,1.0586 68.05,1.6094 -1.73,-9.3086 -4.84,-18.0195 -9.35,-25.8789 C 3359.45,9.37891 3306.89,0 3233.4,0 m 78.21,92.5898 c -40.36,-0.0078 -95.64,1.5313 -159.36,7.3594 1.59,33.3398 6.11,58.9488 11.91,78.4098 10.3,34.34 24.05,49.391 33.63,56.582 4.85,3.59 8.82,5.25 11.29,6.059 1.24,0.391 2.09,0.57 2.46,0.629 l 0.14,0.019 c 8.17,0.704 14.82,6.25 17.27,13.641 87.55,-34.258 139.81,-102.121 150.36,-161.0507 -7.78,-0.4492 -31.85,-1.6485 -67.7,-1.6485 m -199.2,11.4692 c -34.24,3.929 -70.35,9.14 -107.45,15.992 -124.32,22.918 -259.7,64.367 -373.57,137.207 -2.79,1.781 -5.85,2.781 -8.93,3.07 4.12,42.133 12.39,96.453 28.7,158.07 6.92,-2.378 43.83,-14.839 92.36,-27.359 53.79,-13.82 121.48,-27.84 180.08,-27.91 7.99,0 15.82,0.269 23.46,0.851 5.91,0.45 11.3,3.489 14.75,8.321 3.45,4.82 4.57,10.89 3.09,16.629 v 0 0 c -0.2,0.73 -3.36,14.039 -3.34,30.308 -0.01,9.211 1.01,19.321 3.74,28.543 2.26,7.61 5.56,14.508 10.29,20.449 12.1,-18.019 33.33,-47.742 61.25,-79.429 -8.73,-3 -20.95,-8.43 -34.07,-18.11 -12,-8.871 -24.67,-21.351 -35.66,-38.461 -11,-17.101 -20.28,-38.761 -25.91,-65.699 -2.27,-10.812 4.66,-21.41 15.48,-23.679 1.38,-0.282 2.76,-0.422 4.12,-0.422 5.24,0 10.17,2.07 13.83,5.57 -1.24,-4.52 -2.38,-9.211 -3.39,-14.07 -2.27,-10.809 4.66,-21.41 15.47,-23.668 1.39,-0.293 2.76,-0.434 4.12,-0.434 9.27,0 17.58,6.473 19.56,15.902 4.73,22.59 12.17,39.45 20.4,52.27 12.37,19.191 26.66,29.602 37.82,35.48 5.57,2.918 10.33,4.649 13.51,5.622 1.59,0.476 2.78,0.769 3.48,0.918 l 0.65,0.14 c 5.12,0.828 9.47,3.539 12.46,7.32 1.79,-1.519 3.59,-3.019 5.4,-4.519 -8.43,-3.16 -19.41,-8.41 -31.11,-17.039 -12,-8.871 -24.68,-21.352 -35.66,-38.461 -11.01,-17.102 -20.28,-38.77 -25.91,-65.711 -2.26,-10.809 4.67,-21.41 15.48,-23.672 1.38,-0.289 2.76,-0.43 4.12,-0.43 9.27,0 17.58,6.481 19.55,15.911 4.74,22.589 12.17,39.453 20.4,52.269 12.37,19.192 26.66,29.594 37.82,35.473 5.57,2.918 10.33,4.648 13.51,5.617 1.59,0.48 2.78,0.773 3.48,0.934 l 0.65,0.128 c 5.64,0.918 10.35,4.11 13.34,8.5 13.73,-9.058 27.97,-17.14 42.65,-23.832 -13.52,-7.796 -29.68,-22.378 -42.62,-47.558 -13.85,-26.789 -24.51,-65.149 -27.4,-121.031 m -126.43,175.203 c 4.2,12.547 9.31,22.828 14.77,31.34 12.37,19.187 26.66,29.597 37.82,35.468 5.57,2.918 10.33,4.66 13.51,5.621 1.59,0.489 2.78,0.778 3.48,0.93 l 0.65,0.141 h 0.02 c 3.85,0.629 7.26,2.32 9.99,4.718 0.37,-0.371 0.75,-0.75 1.12,-1.121 -8.76,-2.961 -21.17,-8.418 -34.53,-18.269 -12.01,-8.871 -24.68,-21.352 -35.66,-38.461 -3.98,-6.18 -7.74,-12.957 -11.17,-20.367" style="fill:#f8b90a;fill-opacity:1;fill-rule:nonzero;stroke:none" id="path60" />
					<path d="m 2922.3,403.129 c -52.06,0.16 -117.22,13.301 -168.79,26.652 -26.04,6.707 -48.72,13.438 -64.83,18.469 -4.69,1.469 -8.83,2.789 -12.33,3.93 l -21.87,1317.47 c 103.58,-27.95 222.12,-52 350.4,-64.18 L 2944.95,493.961 c -8.86,-10.871 -14.53,-23.031 -18.01,-34.859 -4.14,-14.082 -5.37,-27.84 -5.38,-39.864 0.01,-5.816 0.3,-11.238 0.74,-16.109" style="fill:#ffffff;fill-opacity:1;fill-rule:nonzero;stroke:none" id="path62" />
					<path d="m 2923.6,363.129 c -58.6,0.07 -126.29,14.09 -180.08,27.91 -48.53,12.52 -85.44,24.981 -92.36,27.359 -0.74,0.25 -1.14,0.391 -1.17,0.403 -7.93,2.769 -13.26,10.16 -13.4,18.551 l -8.13,489.636 -0.66,40 -13.51,813.912 c 13.12,-3.81 26.53,-7.56 40.19,-11.25 l 21.87,-1317.47 c 3.5,-1.141 7.64,-2.461 12.33,-3.93 16.11,-5.031 38.79,-11.762 64.83,-18.469 51.57,-13.351 116.73,-26.492 168.79,-26.652 -0.44,4.871 -0.73,10.293 -0.74,16.109 0.01,12.024 1.24,25.782 5.38,39.864 3.48,11.828 9.15,23.988 18.01,34.859 l 59.93,1211.509 c 13.21,-1.25 26.49,-2.37 39.89,-3.37 l -36.37,-735.112 -1.98,-40 -21.86,-442.027 c -0.24,-4.871 -2.27,-9.5 -5.67,-12.992 -1.17,-1.199 -2.27,-2.449 -3.3,-3.739 -4.73,-5.941 -8.03,-12.839 -10.29,-20.449 -2.73,-9.222 -3.75,-19.332 -3.74,-28.543 -0.02,-16.269 3.14,-29.578 3.34,-30.308 v 0 0 0 c 1.48,-5.739 0.36,-11.809 -3.09,-16.629 -3.45,-4.832 -8.84,-7.871 -14.75,-8.321 -7.64,-0.582 -15.47,-0.851 -23.46,-0.851 m 40.98,122.812 v 0" style="fill:#100f0d;fill-opacity:1;fill-rule:nonzero;stroke:none" id="path64" />
					<path d="m 3311.61,52.5898 c -70.96,0 -186.28,4.5821 -313.91,28.129 -124.27,22.9722 -260.3,63.8322 -378.36,136.8712 -3.18,1.961 -6.35,3.961 -9.49,5.969 -9.31,5.953 -12.03,18.312 -6.09,27.621 3.82,5.968 10.28,9.23 16.88,9.23 0.6,0 1.21,-0.031 1.82,-0.082 3.08,-0.289 6.14,-1.289 8.93,-3.07 113.87,-72.84 249.25,-114.289 373.57,-137.207 37.1,-6.852 73.21,-12.063 107.45,-15.992 -0.37,-6.9574 -0.61,-14.1801 -0.72,-21.6879 -0.16,-11.0508 8.67,-20.1328 19.71,-20.293 0.1,0 0.2,0 0.3,0 10.91,0 19.83,8.7617 19.99,19.711 0.09,6.289 0.28,12.3398 0.56,18.1601 63.72,-5.8281 119,-7.3672 159.36,-7.3594 35.85,0 59.92,1.1993 67.7,1.6485 0.67,0.043 1.21,0.0703 1.63,0.1015 l 1.09,0.0704 v 0 c 0.48,0.0312 0.95,0.0507 1.42,0.0507 10.41,0 19.19,-8.0625 19.93,-18.6015 0.77,-11.0196 -7.54,-20.5781 -18.55,-21.3477 -0.1,-0.0117 -1.87,-0.1328 -5.17,-0.3125 -9.95,-0.5508 -33.84,-1.6094 -68.05,-1.6094" style="fill:#100f0d;fill-opacity:1;fill-rule:nonzero;stroke:none" id="path66" />
					<path d="m 3131.7,62.0781 c -0.1,0 -0.2,0 -0.3,0 -11.04,0.1602 -19.87,9.2422 -19.71,20.293 0.11,7.5078 0.35,14.7305 0.72,21.6879 2.89,55.882 13.55,94.242 27.4,121.031 12.94,25.18 29.1,39.762 42.62,47.558 2.66,1.532 5.21,2.801 7.62,3.84 9.75,4.282 16.89,4.953 18.8,5.063 0.38,0.019 0.75,0.027 1.13,0.027 10.53,0 19.36,-8.226 19.95,-18.879 0.15,-2.59 -0.21,-5.09 -0.98,-7.41 -2.45,-7.391 -9.1,-12.937 -17.27,-13.641 l -0.14,-0.019 c -0.37,-0.059 -1.22,-0.238 -2.46,-0.629 -2.47,-0.809 -6.44,-2.469 -11.29,-6.059 -9.58,-7.191 -23.33,-22.242 -33.63,-56.582 -5.8,-19.461 -10.32,-45.07 -11.91,-78.4098 -0.28,-5.8203 -0.47,-11.8711 -0.56,-18.1601 -0.16,-10.9493 -9.08,-19.711 -19.99,-19.711" style="fill:#100f0d;fill-opacity:1;fill-rule:nonzero;stroke:none" id="path68" />
					<path d="m 3031.03,177.648 c -1.36,0 -2.74,0.141 -4.12,0.43 -10.81,2.262 -17.74,12.863 -15.48,23.672 5.63,26.941 14.9,48.609 25.91,65.711 10.98,17.109 23.66,29.59 35.66,38.461 11.7,8.629 22.68,13.879 31.11,17.039 8.92,3.348 15,4.348 16.08,4.527 1.03,0.16 2.06,0.242 3.07,0.242 9.7,0 18.22,-7.082 19.74,-16.96 0.8,-5.211 -0.48,-10.25 -3.22,-14.29 -2.99,-4.39 -7.7,-7.582 -13.34,-8.5 l -0.65,-0.128 c -0.7,-0.161 -1.89,-0.454 -3.48,-0.934 -3.18,-0.969 -7.94,-2.699 -13.51,-5.617 -11.16,-5.879 -25.45,-16.281 -37.82,-35.473 -8.23,-12.816 -15.66,-29.68 -20.4,-52.269 -1.97,-9.43 -10.28,-15.911 -19.55,-15.911" style="fill:#100f0d;fill-opacity:1;fill-rule:nonzero;stroke:none" id="path70" />
					<path d="m 2990.83,209.828 c -1.36,0 -2.73,0.141 -4.12,0.434 -10.81,2.258 -17.74,12.859 -15.47,23.668 1.01,4.859 2.15,9.55 3.39,14.07 2.81,2.699 4.86,6.238 5.72,10.328 1.59,7.602 3.49,14.563 5.63,20.934 3.43,7.41 7.19,14.187 11.17,20.367 10.98,17.109 23.65,29.59 35.66,38.461 13.36,9.851 25.77,15.308 34.53,18.269 7.03,2.379 11.72,3.153 12.65,3.313 v 0 c 1.04,0.156 2.06,0.226 3.08,0.226 9.7,0 18.21,-7.07 19.74,-16.949 0.88,-5.73 -0.76,-11.258 -4.1,-15.469 -2.99,-3.781 -7.34,-6.492 -12.46,-7.32 l -0.65,-0.14 c -0.7,-0.149 -1.89,-0.442 -3.48,-0.918 -3.18,-0.973 -7.94,-2.704 -13.51,-5.622 -11.16,-5.878 -25.45,-16.289 -37.82,-35.48 -8.23,-12.82 -15.67,-29.68 -20.4,-52.27 -1.98,-9.429 -10.29,-15.902 -19.56,-15.902" style="fill:#100f0d;fill-opacity:1;fill-rule:nonzero;stroke:none" id="path72" />
					<path d="m 2960.8,242.43 c -1.36,0 -2.74,0.14 -4.12,0.422 -10.82,2.269 -17.75,12.867 -15.48,23.679 5.63,26.938 14.91,48.598 25.91,65.699 10.99,17.11 23.66,29.59 35.66,38.461 13.12,9.68 25.34,15.11 34.07,18.11 7.29,2.5 12.16,3.308 13.11,3.457 h 0.01 c 1.03,0.164 2.05,0.242 3.06,0.242 9.7,0 18.22,-7.07 19.75,-16.961 1.07,-6.988 -1.61,-13.699 -6.55,-18.059 -2.73,-2.398 -6.14,-4.089 -9.99,-4.718 h -0.02 l -0.65,-0.141 c -0.7,-0.152 -1.89,-0.441 -3.48,-0.93 -3.18,-0.961 -7.94,-2.703 -13.51,-5.621 -11.16,-5.871 -25.45,-16.281 -37.82,-35.468 -5.46,-8.512 -10.57,-18.793 -14.77,-31.34 -2.14,-6.371 -4.04,-13.332 -5.63,-20.934 -0.86,-4.09 -2.91,-7.629 -5.72,-10.328 -3.66,-3.5 -8.59,-5.57 -13.83,-5.57" style="fill:#100f0d;fill-opacity:1;fill-rule:nonzero;stroke:none" id="path74" />
					<path d="m 4023.84,0 c -182.16,0 -492.27,57.0117 -617.87,168.449 0,0 -1.07,17.903 0.41,49.172 118.72,-73.062 255.53,-113.93 380.5,-136.9101 128.31,-23.539 244.26,-28.1211 315.59,-28.1211 34.42,0 58.44,1.0704 68.43,1.6094 -1.74,-9.3086 -4.86,-18.0195 -9.39,-25.8789 C 4150.58,9.37891 4097.73,0 4023.84,0 m 78.63,92.5898 c -40.6,-0.0078 -96.22,1.5313 -160.34,7.3711 1.6,33.3201 6.15,58.9181 11.98,78.3671 10.35,34.332 24.17,49.371 33.82,56.582 4.88,3.598 8.89,5.27 11.39,6.07 1.26,0.411 2.12,0.579 2.51,0.649 l 0.16,0.019 c 8.18,0.704 14.85,6.274 17.29,13.672 88.08,-34.25 140.67,-102.129 151.28,-161.0817 -7.83,-0.4492 -32.04,-1.6485 -68.09,-1.6485 m -200.18,11.4492 c -34.48,3.941 -70.83,9.152 -108.19,16.02 -125.02,22.91 -261.18,64.371 -375.7,137.23 -2.78,1.762 -5.82,2.75 -8.88,3.039 4.14,42.102 12.45,96.383 28.82,157.953 7.72,-2.633 44.46,-14.91 92.54,-27.25 54.08,-13.812 122.13,-27.832 181.03,-27.902 8.03,0 15.9,0.269 23.57,0.851 5.91,0.45 11.32,3.5 14.77,8.329 3.44,4.82 4.56,10.91 3.07,16.652 v 0 0 c -0.2,0.719 -3.38,14.027 -3.36,30.289 -0.01,9.199 1.02,19.301 3.76,28.5 2.32,7.77 5.73,14.801 10.65,20.82 12.12,-17.961 33.52,-47.808 61.73,-79.672 -8.78,-2.968 -21.16,-8.41 -34.48,-18.179 -12.06,-8.86 -24.8,-21.34 -35.85,-38.449 -11.06,-17.102 -20.4,-38.77 -26.06,-65.719 -2.28,-10.813 4.64,-21.422 15.45,-23.692 1.39,-0.289 2.77,-0.429 4.14,-0.429 5.36,0 10.41,2.16 14.09,5.82 -1.28,-4.59 -2.44,-9.352 -3.48,-14.301 -2.27,-10.808 4.65,-21.41 15.46,-23.687 1.38,-0.293 2.77,-0.434 4.14,-0.434 9.25,0 17.56,6.461 19.55,15.883 4.76,22.578 12.23,39.43 20.51,52.25 12.43,19.187 26.81,29.609 38.05,35.5 5.61,2.918 10.41,4.66 13.62,5.629 1.6,0.48 2.81,0.769 3.51,0.93 l 0.67,0.14 h 0.01 c 5.24,0.848 9.68,3.672 12.67,7.578 1.86,-1.566 3.74,-3.129 5.62,-4.679 -8.5,-3.137 -19.62,-8.411 -31.48,-17.11 -12.07,-8.859 -24.8,-21.34 -35.86,-38.449 -11.06,-17.102 -20.39,-38.77 -26.06,-65.73 -2.27,-10.801 4.65,-21.411 15.46,-23.692 1.38,-0.289 2.77,-0.43 4.13,-0.43 9.26,0 17.57,6.473 19.56,15.883 4.76,22.578 12.23,39.43 20.51,52.258 12.43,19.191 26.82,29.602 38.05,35.492 5.61,2.918 10.41,4.66 13.62,5.629 1.6,0.481 2.81,0.781 3.51,0.93 l 0.67,0.14 h 0.01 c 5.74,0.93 10.52,4.231 13.5,8.739 13.92,-9.16 28.39,-17.34 43.28,-24.078 -13.56,-7.801 -29.77,-22.36 -42.76,-47.512 -13.93,-26.801 -24.66,-65.188 -27.57,-121.09 m -128.3,173.621 c 4.32,13.262 9.65,24.039 15.37,32.899 12.43,19.191 26.82,29.601 38.06,35.492 5.61,2.929 10.41,4.66 13.61,5.629 1.61,0.492 2.81,0.781 3.52,0.941 l 0.63,0.129 c 4,0.641 7.53,2.418 10.32,4.969 0.42,-0.418 0.85,-0.848 1.27,-1.258 -8.81,-2.941 -21.39,-8.402 -34.94,-18.34 -12.07,-8.859 -24.8,-21.332 -35.86,-38.441 -4.29,-6.641 -8.32,-13.961 -11.98,-22.02" style="fill:#f8b90a;fill-opacity:1;fill-rule:nonzero;stroke:none" id="path76" />
					<path d="m 3710.7,403.129 c -52.4,0.141 -117.98,13.289 -169.88,26.652 -26.19,6.719 -49,13.438 -65.2,18.481 -4.74,1.468 -8.92,2.797 -12.45,3.937 L 3442.06,1716.8 c 117.41,18.3 237.35,50.35 357.25,100.64 L 3733.48,493.988 c -8.9,-10.859 -14.6,-23.019 -18.1,-34.847 -4.17,-14.09 -5.41,-27.86 -5.42,-39.891 0.01,-5.82 0.31,-11.25 0.74,-16.121" style="fill:#ffffff;fill-opacity:1;fill-rule:nonzero;stroke:none" id="path78" />
					<path d="m 3711.91,363.129 c -58.9,0.07 -126.95,14.09 -181.03,27.902 -48.08,12.34 -84.82,24.617 -92.54,27.25 -0.95,0.321 -1.46,0.5 -1.49,0.508 -7.93,2.762 -13.3,10.172 -13.44,18.563 l -8.17,489.636 -0.67,40 -12.42,744.102 c 13.22,1.72 26.62,3.64 39.91,5.71 l 21.11,-1264.601 c 3.53,-1.14 7.71,-2.469 12.45,-3.937 16.2,-5.043 39.01,-11.762 65.2,-18.481 51.9,-13.363 117.48,-26.511 169.88,-26.652 -0.43,4.871 -0.73,10.301 -0.74,16.121 0.01,12.031 1.25,25.801 5.42,39.891 3.5,11.828 9.2,23.988 18.1,34.847 l 65.83,1323.452 c 13.63,5.72 27.33,11.7 40.94,17.9 l -43.19,-868.352 -1.99,-40 -21.99,-442.039 c -0.24,-4.859 -2.29,-9.539 -5.7,-13.019 -1.06,-1.078 -2.07,-2.2 -3.01,-3.36 -4.92,-6.019 -8.33,-13.05 -10.65,-20.82 -2.74,-9.199 -3.77,-19.301 -3.76,-28.5 -0.02,-16.262 3.16,-29.57 3.36,-30.289 v 0 0 0 c 1.49,-5.742 0.37,-11.832 -3.07,-16.652 -3.45,-4.829 -8.86,-7.879 -14.77,-8.329 -7.67,-0.582 -15.54,-0.851 -23.57,-0.851 m 41.2,122.812 v 0" style="fill:#100f0d;fill-opacity:1;fill-rule:nonzero;stroke:none" id="path80" />
					<path d="m 4102.47,52.5898 c -71.33,0 -187.28,4.5821 -315.59,28.1211 -124.97,22.9801 -261.78,63.8481 -380.5,136.9101 -3.16,1.949 -6.31,3.918 -9.44,5.91 -9.32,5.93 -12.08,18.289 -6.15,27.61 3.81,5.988 10.28,9.269 16.9,9.269 0.61,0 1.22,-0.031 1.83,-0.082 3.06,-0.289 6.1,-1.277 8.88,-3.039 114.52,-72.859 250.68,-114.32 375.7,-137.23 37.36,-6.868 73.71,-12.079 108.19,-16.02 -0.36,-6.9492 -0.6,-14.1679 -0.71,-21.6679 -0.16,-11.0391 8.66,-20.1328 19.7,-20.293 0.1,0 0.2,0 0.3,0 10.91,0 19.83,8.7617 19.99,19.711 0.09,6.289 0.28,12.3515 0.56,18.1718 64.12,-5.8398 119.74,-7.3789 160.34,-7.3711 36.05,0 60.26,1.1993 68.09,1.6485 0.67,0.043 1.22,0.0703 1.64,0.1015 l 1.1,0.0704 v 0 c 0.47,0.0312 0.94,0.0507 1.41,0.0507 10.41,0 19.2,-8.0703 19.93,-18.6093 0.77,-11.0235 -7.54,-20.5703 -18.56,-21.3399 -0.1,-0.0117 -1.87,-0.1328 -5.18,-0.3125 -9.99,-0.539 -34.01,-1.6094 -68.43,-1.6094" style="fill:#100f0d;fill-opacity:1;fill-rule:nonzero;stroke:none" id="path82" />
					<path d="m 3921.58,62.0781 c -0.1,0 -0.2,0 -0.3,0 -11.04,0.1602 -19.86,9.2539 -19.7,20.293 0.11,7.5 0.35,14.7187 0.71,21.6679 2.91,55.902 13.64,94.289 27.57,121.09 12.99,25.152 29.2,39.711 42.76,47.512 2.69,1.539 5.28,2.82 7.71,3.871 9.79,4.269 16.94,4.929 18.83,5.039 h 0.01 c 0.37,0.019 0.75,0.027 1.13,0.027 10.53,0 19.35,-8.238 19.94,-18.887 0.15,-2.57 -0.2,-5.062 -0.96,-7.371 -2.44,-7.398 -9.11,-12.968 -17.29,-13.672 l -0.16,-0.019 c -0.39,-0.07 -1.25,-0.238 -2.51,-0.649 -2.5,-0.8 -6.51,-2.472 -11.39,-6.07 -9.65,-7.211 -23.47,-22.25 -33.82,-56.582 -5.83,-19.449 -10.38,-45.047 -11.98,-78.3671 -0.28,-5.8203 -0.47,-11.8828 -0.56,-18.1718 -0.16,-10.9493 -9.08,-19.711 -19.99,-19.711" style="fill:#100f0d;fill-opacity:1;fill-rule:nonzero;stroke:none" id="path84" />
					<path d="m 3819.91,177.648 c -1.36,0 -2.75,0.141 -4.13,0.43 -10.81,2.281 -17.73,12.891 -15.46,23.692 5.67,26.96 15,48.628 26.06,65.73 11.06,17.109 23.79,29.59 35.86,38.449 11.86,8.699 22.98,13.973 31.48,17.11 8.83,3.273 14.83,4.261 15.89,4.429 1.03,0.16 2.05,0.242 3.05,0.242 9.71,0 18.23,-7.089 19.75,-16.98 0.78,-5.102 -0.44,-10.039 -3.07,-14.031 -2.98,-4.508 -7.76,-7.809 -13.5,-8.739 h -0.01 l -0.67,-0.14 c -0.7,-0.149 -1.91,-0.449 -3.51,-0.93 -3.21,-0.969 -8.01,-2.711 -13.62,-5.629 -11.23,-5.89 -25.62,-16.301 -38.05,-35.492 -8.28,-12.828 -15.75,-29.68 -20.51,-52.258 -1.99,-9.41 -10.3,-15.883 -19.56,-15.883" style="fill:#100f0d;fill-opacity:1;fill-rule:nonzero;stroke:none" id="path86" />
					<path d="m 3779.51,209.828 c -1.37,0 -2.76,0.141 -4.14,0.434 -10.81,2.277 -17.73,12.879 -15.46,23.687 1.04,4.949 2.2,9.711 3.48,14.301 2.67,2.66 4.63,6.102 5.46,10.059 1.47,6.98 3.21,13.421 5.14,19.351 3.66,8.059 7.69,15.379 11.98,22.02 11.06,17.109 23.79,29.582 35.86,38.441 13.55,9.938 26.13,15.399 34.94,18.34 6.91,2.301 11.51,3.059 12.43,3.211 v 0 c 1.03,0.156 2.05,0.226 3.05,0.226 9.71,0 18.23,-7.078 19.75,-16.968 0.86,-5.602 -0.7,-11.02 -3.9,-15.192 -2.99,-3.906 -7.43,-6.73 -12.67,-7.578 h -0.01 l -0.67,-0.14 c -0.7,-0.161 -1.91,-0.45 -3.51,-0.93 -3.21,-0.969 -8.01,-2.711 -13.62,-5.629 -11.24,-5.891 -25.62,-16.313 -38.05,-35.5 -8.28,-12.82 -15.75,-29.672 -20.51,-52.25 -1.99,-9.422 -10.3,-15.883 -19.55,-15.883" style="fill:#100f0d;fill-opacity:1;fill-rule:nonzero;stroke:none" id="path88" />
					<path d="m 3749.3,242.43 c -1.37,0 -2.75,0.14 -4.14,0.429 -10.81,2.27 -17.73,12.879 -15.45,23.692 5.66,26.949 15,48.617 26.06,65.719 11.05,17.109 23.79,29.589 35.85,38.449 13.32,9.769 25.7,15.211 34.48,18.179 7.17,2.434 11.95,3.211 12.89,3.372 1.03,0.152 2.05,0.23 3.06,0.23 9.71,0 18.23,-7.078 19.74,-16.969 1.05,-6.871 -1.52,-13.461 -6.29,-17.812 -2.79,-2.551 -6.32,-4.328 -10.32,-4.969 l -0.63,-0.129 c -0.71,-0.16 -1.91,-0.449 -3.52,-0.941 -3.2,-0.969 -8,-2.7 -13.61,-5.629 -11.24,-5.891 -25.63,-16.301 -38.06,-35.492 -5.72,-8.86 -11.05,-19.637 -15.37,-32.899 -1.93,-5.93 -3.67,-12.371 -5.14,-19.351 -0.83,-3.957 -2.79,-7.399 -5.46,-10.059 -3.68,-3.66 -8.73,-5.82 -14.09,-5.82" style="fill:#100f0d;fill-opacity:1;fill-rule:nonzero;stroke:none" id="path90" />
					<path d="m 4275.12,3046.99 h -87.1 v 163.4 c 0,38.41 -31.45,69.65 -70.11,69.65 h -52.82 c -0.05,2.38 -0.13,4.74 -0.26,7.08 1.25,-0.08 2.52,-0.12 3.8,-0.13 5.21,0.01 10.72,0.71 16.24,2.67 8.29,2.84 16.3,9.04 21.32,17.21 5.11,8.17 7.63,17.64 8.53,28.21 0.27,3.32 0.4,6.65 0.4,10 -0.01,7.26 -0.6,14.58 -1.64,21.91 h 4.43 c 86.68,0 157.21,-70.07 157.21,-156.18 v -163.82" style="fill:#f89f55;fill-opacity:1;fill-rule:nonzero;stroke:none" id="path92" />
					<path d="M 4105.12,2236.99 H 3978.3 l -71.82,650 h 198.64 v 0 -204.36 -445.64 m -20,690 h -183.06 l -13.26,120 h 114.79 40 61.53 c -11.05,0 -20,-8.95 -20,-20 v -100" style="fill:#f9da19;fill-opacity:1;fill-rule:nonzero;stroke:none" id="path94" />
					<path d="m 4595.12,2236.99 h -490 v 650 h 490 v -95.53 -415.94 -138.53 m -191.42,186.56 -8.7,-10.47 c -7.05,-8.5 -5.88,-21.11 2.62,-28.17 3.73,-3.1 8.26,-4.61 12.76,-4.61 5.75,0 11.45,2.46 15.4,7.23 l 11.08,13.34 14.69,-10.05 c 3.46,-2.36 7.39,-3.49 11.28,-3.49 6.38,0 12.65,3.05 16.52,8.71 6.24,9.12 3.9,21.57 -5.22,27.8 l -11.61,7.94 2.95,3.56 14.36,-9.78 c 3.45,-2.34 7.36,-3.46 11.24,-3.46 6.39,0 12.68,3.06 16.55,8.74 6.22,9.14 3.85,21.58 -5.28,27.79 l -11.2,7.62 8.16,9.83 c 7.05,8.5 5.88,21.11 -2.62,28.16 -3.73,3.1 -8.26,4.62 -12.76,4.62 -5.74,0 -11.45,-2.47 -15.4,-7.23 l -10.6,-12.77 -4.83,3.29 8.63,10.5 c 7.01,8.53 5.77,21.14 -2.76,28.15 -3.73,3.05 -8.22,4.54 -12.69,4.54 -5.78,0 -11.51,-2.49 -15.46,-7.31 l -10.92,-13.29 -14.83,10.09 c -3.44,2.35 -7.36,3.47 -11.23,3.47 -6.4,0 -12.68,-3.06 -16.55,-8.75 -6.22,-9.13 -3.85,-21.57 5.28,-27.78 l 11.84,-8.06 -2.81,-3.43 -14.28,9.77 c -3.46,2.36 -7.39,3.5 -11.28,3.5 -6.38,0 -12.65,-3.05 -16.52,-8.72 -6.24,-9.12 -3.9,-21.56 5.22,-27.8 l 11.37,-7.78 -8.37,-10.19 c -7.01,-8.54 -5.77,-21.14 2.76,-28.15 3.72,-3.06 8.22,-4.55 12.68,-4.55 5.78,0 11.52,2.5 15.47,7.31 l 10.61,12.92 4.45,-3.04 m -189.24,287.89 -9.22,-11.51 c -6.91,-8.62 -5.53,-21.21 3.09,-28.11 3.69,-2.96 8.11,-4.4 12.5,-4.4 5.86,0 11.67,2.56 15.62,7.49 l 10.71,13.37 14.57,-10.33 c 3.51,-2.48 7.55,-3.68 11.55,-3.68 6.26,0 12.44,2.94 16.33,8.45 6.39,9.01 4.26,21.49 -4.76,27.88 l -12.63,8.94 3.58,4.46 14.16,-10.04 c 3.52,-2.49 7.56,-3.69 11.56,-3.69 6.26,0 12.43,2.93 16.33,8.43 6.39,9.01 4.27,21.49 -4.74,27.88 l -12.25,8.69 9.1,11.35 c 6.91,8.62 5.52,21.21 -3.09,28.11 -3.69,2.96 -8.11,4.4 -12.5,4.4 -5.86,0 -11.67,-2.56 -15.62,-7.49 l -10.57,-13.19 -5.09,3.61 9.25,11.61 c 6.89,8.64 5.46,21.22 -3.18,28.1 -3.68,2.94 -8.08,4.36 -12.45,4.36 -5.88,0 -11.7,-2.58 -15.65,-7.54 l -10.64,-13.35 -14.59,10.35 c -3.51,2.49 -7.55,3.69 -11.55,3.69 -6.27,0 -12.43,-2.94 -16.33,-8.43 -6.39,-9.01 -4.27,-21.5 4.74,-27.89 l 12.77,-9.05 -3.61,-4.53 -13.82,9.79 c -3.51,2.49 -7.55,3.68 -11.55,3.68 -6.26,0 -12.44,-2.94 -16.33,-8.44 -6.39,-9.02 -4.26,-21.5 4.76,-27.88 l 11.98,-8.48 -8.9,-11.17 c -6.88,-8.64 -5.46,-21.22 3.18,-28.1 3.68,-2.93 8.08,-4.36 12.45,-4.36 5.88,0 11.71,2.58 15.66,7.54 l 10.3,12.93 4.88,-3.45 m 214.9,-256.98 -4.62,3.16 2.86,3.49 4.65,-3.17 -2.89,-3.48 m -189.84,288.24 -4.98,3.53 3.59,4.5 4.99,-3.54 -3.6,-4.49 m 355.6,184.29 h -470 v 100 c 0,11.05 -8.95,20 -20,20 v 0 h 82.9 87.1 288.74 31.26 v -120" style="fill:#f8b90a;fill-opacity:1;fill-rule:nonzero;stroke:none" id="path96" />
					<path d="m 4595.12,2886.99 v 0 h -490 c 11.05,0 20,8.95 20,20 v 20 h 470 c 11.04,0 20,-8.95 20,-20 0,-11.04 -8.96,-20 -20,-20 m -490,0 h -198.64 l -4.42,40 h 183.06 v -20 c 0,-11.05 8.95,-20 20,-20" style="fill:#100f0d;fill-opacity:1;fill-rule:nonzero;stroke:none" id="path98" />
					<path d="m 4105.12,2886.99 v 0 0 0 c -11.05,0 -20,8.95 -20,20 v 20 100 c 0,11.05 8.95,20 20,20 v 0 0 c 11.05,0 20,-8.95 20,-20 v -100 -20 c 0,-11.05 -8.95,-20 -20,-20 v 0" style="fill:#100f0d;fill-opacity:1;fill-rule:nonzero;stroke:none" id="path100" />
					<path d="m 4183.62,2694.42 c -4.37,0 -8.77,1.43 -12.45,4.36 -8.64,6.88 -10.06,19.46 -3.18,28.1 l 8.9,11.17 32.69,-23.16 -10.3,-12.93 c -3.95,-4.96 -9.78,-7.54 -15.66,-7.54 m 50.92,51.81 -32.69,23.15 3.61,4.53 32.67,-23.18 -3.59,-4.5 m 28.55,35.83 -32.67,23.18 10.64,13.35 c 3.95,4.96 9.77,7.54 15.65,7.54 4.37,0 8.77,-1.42 12.45,-4.36 8.64,-6.88 10.07,-19.46 3.18,-28.1 l -9.25,-11.61" style="fill:#100f0d;fill-opacity:1;fill-rule:nonzero;stroke:none" id="path102" />
					<path d="m 4220.83,2667.42 c -4.39,0 -8.81,1.44 -12.5,4.4 -8.62,6.9 -10,19.49 -3.09,28.11 l 9.22,11.51 32.7,-23.16 -10.71,-13.37 c -3.95,-4.93 -9.76,-7.49 -15.62,-7.49 m 51.39,52.12 -32.7,23.16 3.6,4.49 32.68,-23.19 -3.58,-4.46 m 28.64,35.73 -32.68,23.18 10.57,13.19 c 3.95,4.93 9.76,7.49 15.62,7.49 4.39,0 8.81,-1.44 12.5,-4.4 8.61,-6.9 10,-19.49 3.09,-28.11 l -9.1,-11.35" style="fill:#100f0d;fill-opacity:1;fill-rule:nonzero;stroke:none" id="path104" />
					<path d="m 4301.52,2710.27 c -4,0 -8.04,1.2 -11.56,3.69 l -14.16,10.04 -32.68,23.19 -4.99,3.54 -32.67,23.18 -12.77,9.05 c -9.01,6.39 -11.13,18.88 -4.74,27.89 3.9,5.49 10.06,8.43 16.33,8.43 4,0 8.04,-1.2 11.55,-3.69 l 14.59,-10.35 32.67,-23.18 5.09,-3.61 32.68,-23.18 12.25,-8.69 c 9.01,-6.39 11.13,-18.87 4.74,-27.88 -3.9,-5.5 -10.07,-8.43 -16.33,-8.43" style="fill:#100f0d;fill-opacity:1;fill-rule:nonzero;stroke:none" id="path106" />
					<path d="m 4273.28,2674.27 c -4,0 -8.04,1.2 -11.55,3.68 l -14.57,10.33 -32.7,23.16 -4.88,3.45 -32.69,23.16 -11.98,8.48 c -9.02,6.38 -11.15,18.86 -4.76,27.88 3.89,5.5 10.07,8.44 16.33,8.44 4,0 8.04,-1.19 11.55,-3.68 l 13.82,-9.79 32.69,-23.15 4.98,-3.53 32.7,-23.16 12.63,-8.94 c 9.02,-6.39 11.15,-18.87 4.76,-27.88 -3.89,-5.51 -10.07,-8.45 -16.33,-8.45" style="fill:#100f0d;fill-opacity:1;fill-rule:nonzero;stroke:none" id="path108" />
					<path d="m 4373.17,2406.36 c -4.46,0 -8.96,1.49 -12.68,4.55 -8.53,7.01 -9.77,19.61 -2.76,28.15 l 8.37,10.19 33.15,-22.66 -10.61,-12.92 c -3.95,-4.81 -9.69,-7.31 -15.47,-7.31 m 51.57,51.26 -33.15,22.66 2.81,3.43 33.2,-22.6 -2.86,-3.49 m 28.35,34.53 -33.2,22.59 10.92,13.29 c 3.95,4.82 9.68,7.31 15.46,7.31 4.47,0 8.96,-1.49 12.69,-4.54 8.53,-7.01 9.77,-19.62 2.76,-28.15 l -8.63,-10.5" style="fill:#100f0d;fill-opacity:1;fill-rule:nonzero;stroke:none" id="path110" />
					<path d="m 4410.38,2380.3 c -4.5,0 -9.03,1.51 -12.76,4.61 -8.5,7.06 -9.67,19.67 -2.62,28.17 l 8.7,10.47 33.16,-22.68 -11.08,-13.34 c -3.95,-4.77 -9.65,-7.23 -15.4,-7.23 m 52.14,51.48 -33.16,22.68 2.89,3.48 33.22,-22.6 -2.95,-3.56 m 28.62,34.47 -33.22,22.61 10.6,12.77 c 3.95,4.76 9.66,7.23 15.4,7.23 4.5,0 9.03,-1.52 12.76,-4.62 8.5,-7.05 9.67,-19.66 2.62,-28.16 l -8.16,-9.83" style="fill:#100f0d;fill-opacity:1;fill-rule:nonzero;stroke:none" id="path112" />
					<path d="m 4491.07,2422.1 c -3.88,0 -7.79,1.12 -11.24,3.46 l -14.36,9.78 -33.22,22.6 -4.65,3.17 -33.2,22.6 -11.84,8.06 c -9.13,6.21 -11.5,18.65 -5.28,27.78 3.87,5.69 10.15,8.75 16.55,8.75 3.87,0 7.79,-1.12 11.23,-3.47 l 14.83,-10.09 33.2,-22.59 4.83,-3.29 33.22,-22.61 11.2,-7.62 c 9.13,-6.21 11.5,-18.65 5.28,-27.79 -3.87,-5.68 -10.16,-8.74 -16.55,-8.74" style="fill:#100f0d;fill-opacity:1;fill-rule:nonzero;stroke:none" id="path114" />
					<path d="m 4462.83,2387.33 c -3.89,0 -7.82,1.13 -11.28,3.49 l -14.69,10.05 -33.16,22.68 -4.45,3.04 -33.15,22.66 -11.37,7.78 c -9.12,6.24 -11.46,18.68 -5.22,27.8 3.87,5.67 10.14,8.72 16.52,8.72 3.89,0 7.82,-1.14 11.28,-3.5 l 14.28,-9.77 33.15,-22.66 4.62,-3.16 33.16,-22.68 11.61,-7.94 c 9.12,-6.23 11.46,-18.68 5.22,-27.8 -3.87,-5.66 -10.14,-8.71 -16.52,-8.71" style="fill:#100f0d;fill-opacity:1;fill-rule:nonzero;stroke:none" id="path116" />
					<path d="m 4068.42,3326.99 c -2.64,0 -6.87,0.8 -11.62,2.39 -1.62,4.59 -3.45,8.97 -5.51,13.12 -4.55,9.04 -10.17,17.07 -17.68,23.47 -7.38,6.33 -17.35,11.02 -28.37,11.02 -0.04,0 -0.08,0 -0.12,0 v -1.49 0 1.49 c -0.04,0 -0.08,0 -0.12,0 -0.42,0 -0.83,-0.01 -1.24,-0.02 -3.89,4.23 -9.49,10.53 -15.81,18.23 -11.42,13.92 -25.17,32.51 -35.21,51.25 -3.61,6.72 -10.51,10.54 -17.64,10.54 -3.19,0 -6.43,-0.76 -9.44,-2.38 -9.73,-5.23 -13.39,-17.35 -8.16,-27.08 7.9,-14.69 17.16,-28.5 26.14,-40.56 -10.49,-0.37 -19.94,-4.94 -27.01,-11 -4.42,-3.8 -8.22,-8.14 -11.52,-12.92 -3.28,4.79 -7.06,9.14 -11.5,12.92 -6.93,5.94 -16.14,10.44 -26.36,10.97 l -19.93,100.17 c 0.28,0.03 0.56,0.07 0.84,0.11 6.67,1.03 12.05,5.23 14.85,10.83 13.68,-1.99 32.75,-3.85 56.35,-3.85 19.02,0 41,1.21 65.49,4.51 15.62,-3.98 29.06,-7.4 37.08,-9.44 5.58,-9.37 16.1,-27.8 26.28,-49.8 7.02,-15.15 13.87,-31.99 18.86,-48.48 5.02,-16.48 8.08,-32.65 8.05,-45.91 0,-2.32 -0.09,-4.56 -0.26,-6.69 -0.34,-4.08 -1.06,-6.86 -1.7,-8.5 -1.05,-2.5 -1.38,-2.32 -1.4,-2.41 -0.04,-0.03 -0.73,-0.47 -3.13,-0.49 -0.07,0 -0.14,0 -0.21,0" style="fill:#ffffff;fill-opacity:1;fill-rule:nonzero;stroke:none" id="path118" />
					<path d="m 4068.63,3286.99 c -1.28,0.01 -2.55,0.05 -3.8,0.13 -0.86,15.3 -3.58,29.58 -8.03,42.26 4.75,-1.59 8.98,-2.39 11.62,-2.39 0.07,0 0.14,0 0.21,0 2.4,0.02 3.09,0.46 3.13,0.49 0.02,0.09 0.35,-0.09 1.4,2.41 0.64,1.64 1.36,4.42 1.7,8.5 0.17,2.13 0.26,4.37 0.26,6.69 0.03,13.26 -3.03,29.43 -8.05,45.91 -4.99,16.49 -11.84,33.33 -18.86,48.48 -10.18,22 -20.7,40.43 -26.28,49.8 -8.02,2.04 -21.46,5.46 -37.08,9.44 15.74,2.12 32.52,5.11 50.23,9.21 l -0.32,-1.27 0.32,1.27 c 6.35,1.47 12.82,3.08 19.4,4.84 3.48,-5.73 9.79,-16.45 17.08,-30.32 10.96,-20.88 24.17,-48.79 33.23,-78.03 3.8,-12.32 6.91,-24.88 8.69,-37.42 1.04,-7.33 1.63,-14.65 1.64,-21.91 0,-3.35 -0.13,-6.68 -0.4,-10 -0.9,-10.57 -3.42,-20.04 -8.53,-28.21 -5.02,-8.17 -13.03,-14.37 -21.32,-17.21 -5.52,-1.96 -11.03,-2.66 -16.24,-2.67 m -203.51,80 v 0 20 c -0.04,0 -0.08,0 -0.13,0 -4.73,0 -9.27,-0.87 -13.49,-2.36 l -11.38,102.99 c 1.6,-0.41 3.27,-0.63 4.97,-0.63 0.74,0 1.48,0.04 2.23,0.12 l 19.93,-100.17 c -0.66,0.03 -1.33,0.05 -2.01,0.05 -0.04,0 -0.08,0 -0.12,0 v -20" style="fill:#100f0d;fill-opacity:1;fill-rule:nonzero;stroke:none" id="path120" />
					<path d="m 3868.65,3229.35 -12.01,108.77 c 2.12,3.54 4.25,6.01 5.83,7.31 1.02,0.87 1.77,1.27 2.17,1.43 l 0.48,0.13 v 20 0 -20 l 0.48,-0.13 c 0.67,-0.25 2.53,-1.37 4.82,-4.16 3.44,-4.11 7.42,-11.68 10.18,-21.42 2.8,-9.73 4.53,-21.57 4.52,-34.29 v 0 0 0 c 0.05,-19.37 -4.1,-36.77 -9.61,-47.62 -2.32,-4.7 -4.88,-8.09 -6.86,-10.02" style="fill:#ffffff;fill-opacity:1;fill-rule:nonzero;stroke:none" id="path122" />
					<path d="m 3873.24,3187.81 -4.59,41.54 c 1.98,1.93 4.54,5.32 6.86,10.02 5.51,10.85 9.66,28.25 9.61,47.62 0.05,-24.81 4.85,-47.41 13.83,-65.51 1.86,-3.7 3.9,-7.23 6.17,-10.55 -3.3,-4.78 -7.1,-9.12 -11.51,-12.92 -5.55,-4.75 -12.55,-8.59 -20.37,-10.2 m 11.88,99.18 v 0 c 0.01,12.72 -1.72,24.56 -4.52,34.29 -2.76,9.74 -6.74,17.31 -10.18,21.42 -2.29,2.79 -4.15,3.91 -4.82,4.16 l -0.48,0.13 v 20 20 c 0.04,0 0.08,0 0.12,0 0.68,0 1.35,-0.02 2.01,-0.05 10.22,-0.53 19.43,-5.03 26.36,-10.97 4.44,-3.78 8.22,-8.13 11.5,-12.92 -5.07,-7.36 -8.96,-15.78 -12.11,-24.93 -5.1,-15.14 -7.87,-32.53 -7.88,-51.13 m -28.48,51.13 -5.14,46.51 c 4.22,1.49 8.76,2.36 13.49,2.36 0.05,0 0.09,0 0.13,0 v -20 -20 l -0.48,-0.13 c -0.4,-0.16 -1.15,-0.56 -2.17,-1.43 -1.58,-1.3 -3.71,-3.77 -5.83,-7.31" style="fill:#100f0d;fill-opacity:1;fill-rule:nonzero;stroke:none" id="path124" />
					<path d="m 3945.12,3226.99 -0.49,0.13 c -0.66,0.25 -2.53,1.37 -4.81,4.16 -3.44,4.11 -7.42,11.68 -10.18,21.42 -2.81,9.73 -4.53,21.57 -4.52,34.29 -0.06,19.37 4.1,36.77 9.6,47.62 2.7,5.44 5.69,9.13 7.75,10.82 1.02,0.87 1.77,1.27 2.16,1.43 l 0.49,0.13 v 20 0 -20 l 0.48,-0.13 c 0.67,-0.25 2.54,-1.37 4.82,-4.16 1.62,-1.94 3.36,-4.65 5.04,-7.99 -0.87,-2.15 -1.69,-4.35 -2.46,-6.59 -5.1,-15.14 -7.87,-32.53 -7.88,-51.13 0.04,-16.1 2.07,-31.27 5.94,-44.89 -1.21,-1.58 -2.35,-2.78 -3.29,-3.55 -1.03,-0.87 -1.78,-1.27 -2.17,-1.43 l -0.48,-0.13" style="fill:#ffffff;fill-opacity:1;fill-rule:nonzero;stroke:none" id="path126" />
					<path d="m 3945.24,3186.99 c -0.04,0 -0.08,0 -0.12,0 -0.04,0 -0.08,0 -0.12,0 -11.03,0 -20.99,4.7 -28.37,11.02 -4.44,3.78 -8.22,8.13 -11.51,12.92 -2.27,3.32 -4.31,6.85 -6.17,10.55 -8.98,18.1 -13.78,40.7 -13.83,65.51 v 0 0 c 0.01,18.6 2.78,35.99 7.88,51.13 3.15,9.15 7.04,17.57 12.11,24.93 3.3,4.78 7.1,9.12 11.52,12.92 7.07,6.06 16.52,10.63 27.01,11 0.49,-0.67 0.99,-1.33 1.48,-1.99 v -17.99 -20 l -0.49,-0.13 c -0.39,-0.16 -1.14,-0.56 -2.16,-1.43 -2.06,-1.69 -5.05,-5.38 -7.75,-10.82 -5.5,-10.85 -9.66,-28.25 -9.6,-47.62 -0.01,-12.72 1.71,-24.56 4.52,-34.29 2.76,-9.74 6.74,-17.31 10.18,-21.42 2.28,-2.79 4.15,-3.91 4.81,-4.16 l 0.49,-0.13 0.48,0.13 c 0.39,0.16 1.14,0.56 2.17,1.43 0.94,0.77 2.08,1.97 3.29,3.55 2.1,-7.36 4.74,-14.27 7.89,-20.62 3.02,-6.01 6.52,-11.57 10.73,-16.5 -6.83,-4.74 -15.26,-7.99 -24.44,-7.99 m 10.22,147.72 c -1.68,3.34 -3.42,6.05 -5.04,7.99 -2.28,2.79 -4.15,3.91 -4.82,4.16 l -0.48,0.13 v 20 17.99 c 4.54,-6.03 8.98,-11.6 13.1,-16.6 3.54,-4.27 6.84,-8.12 9.77,-11.44 -5.16,-6.52 -9.22,-14.02 -12.53,-22.23" style="fill:#100f0d;fill-opacity:1;fill-rule:nonzero;stroke:none" id="path128" />
					<path d="m 2813.59,6234.38 c 12.19,47.47 36.97,89.87 70.61,123.53 24.21,24.19 52.93,43.8 84.82,57.45 -12.88,-11.56 -25.74,-25.06 -37.63,-40.72 -19.03,-25.04 -35.56,-55.68 -45.57,-92.39 l 38.59,-10.52 c 8.57,31.36 22.54,57.25 38.83,78.72 24.41,32.18 54.22,54.32 77.9,68.25 11.82,6.96 22.09,11.88 29.27,15 1.43,0.62 2.74,1.18 3.92,1.66 10.18,-4.86 30.57,-15.63 52.47,-33.03 15.42,-12.24 31.58,-27.72 45.64,-46.6 9.36,-12.57 17.8,-26.61 24.57,-42.29 -26.81,2.34 -54.15,3.55 -81.89,3.55 -11.05,0 -20,-8.95 -20,-20 0,-3.75 1.03,-7.26 2.82,-10.26 -103.09,-2.35 -199.81,-21.09 -284.35,-52.35 m 498.9,61.39 c -23.08,5.12 -46.74,9.36 -70.87,12.67 -9.1,27.95 -22.63,51.98 -37.9,72.25 -11.77,15.62 -24.55,29.04 -37.25,40.46 37.8,-13.58 71.68,-35.37 99.57,-63.24 18.31,-18.32 33.99,-39.23 46.45,-62.14" style="fill:#54bea3;fill-opacity:1;fill-rule:nonzero;stroke:none" id="path130" />
					<path d="m 2769.01,6216.23 c 23.41,146.7 149.73,259.05 302.64,260.74 l -3,-0.99 c -1.33,-0.46 -36.29,-12.07 -76.6,-41.86 -7.56,-5.59 -15.3,-11.83 -23.03,-18.76 -31.89,-13.65 -60.61,-33.26 -84.82,-57.45 -33.64,-33.66 -58.42,-76.06 -70.61,-123.53 -15.26,-5.65 -30.15,-11.71 -44.58,-18.15 m 593.66,66.8 c -16.39,4.71 -33.14,8.97 -50.18,12.74 -12.46,22.91 -28.14,43.82 -46.45,62.14 -27.89,27.87 -61.77,49.66 -99.57,63.24 -14.66,13.19 -29.2,23.71 -41.93,31.87 -23.79,15.21 -41.38,22.21 -42.26,22.57 l -3.49,1.38 c 128.61,-1.5 238.38,-81.29 283.88,-193.94 M 3081.2,6438 v 0 0 0 m -13.63,0.39 v 0 0 0" style="fill:#100f0d;fill-opacity:1;fill-rule:nonzero;stroke:none" id="path132" />
					<path d="m 3561.19,5586.51 c -26.04,271.7 -181.23,550.48 -460.97,550.48 -329.27,0 -378.52,-313.63 -450.5,-529.97 -96.26,72.12 -154.6,166.58 -154.6,269.97 0,141.05 108.57,265.46 273.89,339.24 14.43,6.44 29.32,12.5 44.58,18.15 84.54,31.26 181.26,50 284.35,52.35 3.5,-5.83 9.88,-9.74 17.18,-9.74 0.08,0 0.16,0 0.25,0 167.53,0 318.8,-46.2 427,-119.57 54.14,-36.68 97.47,-80.07 127.08,-127.54 29.62,-47.5 45.65,-98.92 45.67,-152.89 0,-11.05 8.95,-20 20,-20 3.41,0 6.62,0.85 9.43,2.36 -6.88,-106.48 -75.67,-202.47 -183.36,-272.84" style="fill:#54bea3;fill-opacity:1;fill-rule:nonzero;stroke:none" id="path134" />
					<path d="m 3735.12,5856.99 c -11.05,0 -20,8.95 -20,20 -0.02,53.97 -16.05,105.39 -45.67,152.89 -29.61,47.47 -72.94,90.86 -127.08,127.54 -108.2,73.37 -259.47,119.57 -427,119.57 -0.09,0 -0.17,0 -0.25,0 -7.3,0 -13.68,3.91 -17.18,9.74 -1.79,3 -2.82,6.51 -2.82,10.26 0,11.05 8.95,20 20,20 27.74,0 55.08,-1.21 81.89,-3.55 3.41,-7.89 6.39,-16.19 8.86,-24.92 l 38.5,10.87 c -0.87,3.06 -1.78,6.08 -2.75,9.05 24.13,-3.31 47.79,-7.55 70.87,-12.67 17.04,-3.77 33.79,-8.03 50.18,-12.74 37.79,-10.86 73.75,-24.14 107.49,-39.58 101.75,-46.61 183.52,-112.84 233.23,-192.39 33.1,-52.99 51.75,-112.06 51.73,-174.07 0,-7.63 -4.28,-14.27 -10.57,-17.64 -2.81,-1.51 -6.02,-2.36 -9.43,-2.36" style="fill:#100f0d;fill-opacity:1;fill-rule:nonzero;stroke:none" id="path136" />
					<path d="m 2552.08,5100.71 -4.16,3.76 c 0,0 -94.1,187.04 36.46,361.74 26.75,35.8 46.8,85.06 65.34,140.81 71.98,216.34 121.23,529.97 450.5,529.97 279.74,0 434.93,-278.78 460.97,-550.48 10.95,-114.3 -0.96,-227.36 -36.05,-317.88 -59.41,25.39 -127.87,42.42 -206.79,48.36 l -23.36,-0.46 c 31.45,12.61 50.13,28.37 50.13,45.46 0,26.15 -43.71,49.18 -110,62.6 v 32.4 c 0,0.62 -0.03,1.24 -0.09,1.86 13.05,11.4 23.95,23.91 33.01,36.68 20.85,29.43 32.12,60.17 38.38,83.66 2.4,9.06 4.05,17.05 5.18,23.51 1.82,0.41 3.64,0.87 5.47,1.39 11.13,3.22 22.71,8.55 34.39,15.49 17.45,10.43 34.96,24.45 48.9,41.31 6.95,8.45 13,17.64 17.46,27.67 4.45,10.01 7.3,20.97 7.3,32.51 0.04,11.73 -3.1,23.92 -9.64,34.98 l -0.06,0.09 c -7.23,12.22 -16.41,21.59 -26.85,27.57 -10.35,6 -21.58,8.4 -31.88,8.4 -0.07,0 -0.14,0 -0.2,0 -20.85,-0.16 -38.23,-8.45 -51.01,-15.88 -4.45,-2.64 -8.34,-5.25 -11.55,-7.55 -63.49,26.15 -113.89,73.54 -148.55,115.71 -18.26,22.16 -32.15,42.77 -41.41,57.73 -4.63,7.47 -8.1,13.54 -10.38,17.68 -1.14,2.07 -1.99,3.65 -2.54,4.7 l -0.59,1.14 -0.13,0.25 -0.01,0.03 c -3.41,6.84 -10.33,11.07 -17.87,11.07 -0.56,0 -1.12,-0.02 -1.68,-0.07 -8.19,-0.68 -15.07,-6.22 -17.47,-14.08 -8.64,-28.27 -24.34,-55.12 -43.43,-79.37 -28.57,-36.38 -64.6,-66.72 -93.37,-87.67 -14.27,-10.39 -26.74,-18.5 -35.62,-23.99 -5.83,5.65 -12.42,10.44 -19.48,14.33 -12.74,6.98 -27.13,11.11 -42.02,11.13 0,0 -0.01,0 -0.02,0 -8.67,0 -17.53,-1.45 -26.04,-4.75 -12.78,-4.88 -24.58,-14.19 -32.89,-27.2 -8.38,-13.02 -13.42,-29.34 -14.97,-48.74 v 0.01 c -0.23,-2.82 -0.34,-5.6 -0.34,-8.32 -0.01,-12.06 2.21,-23.33 6.15,-33.39 6.93,-17.67 18.86,-31.29 31.87,-41.53 19.63,-15.36 41.94,-23.92 59.51,-29.13 6.04,-1.78 11.53,-3.13 16.17,-4.15 3.64,-18.96 12.51,-53.16 33.27,-88.21 11.16,-18.77 25.9,-37.81 45.22,-54.44 -1.43,-2.79 -2.19,-5.9 -2.19,-9.11 v 0 -30.88 c -49.15,-13.71 -80,-33.47 -80,-55.44 0,-8.49 4.61,-16.66 13.11,-24.27 -5.05,-7.94 -3.93,-18.6 3.17,-25.29 0.76,-0.75 4.07,-3.74 10.39,-7.97 -42.47,-16 -196.32,-79.41 -329.71,-203.75" style="fill:#100f0d;fill-opacity:1;fill-rule:nonzero;stroke:none" id="path138" />
					<path d="m 3181.55,1696.99 c -46.5,0 -92.21,1.81 -136.78,5.11 -13.4,1 -26.68,2.12 -39.89,3.37 -128.28,12.18 -246.82,36.23 -350.4,64.18 -13.66,3.69 -27.07,7.44 -40.19,11.25 -28.09,8.14 -55.02,16.53 -80.48,24.93 -13.75,4.55 -27.06,9.09 -40,13.63 -14.52,5.1 -28.54,10.18 -41.98,15.2 -131.91,49.26 -210.48,92.85 -210.48,92.85 l 77.64,665.52 5.85,50.1 93.22,799.04 40.31,345.52 c 1.7,-0.47 3.47,-0.7 5.25,-0.7 3.46,0 6.97,0.9 10.16,2.79 1.05,0.63 66.21,39.27 144.93,118.08 3.26,3.26 6.53,6.59 9.83,9.99 l 1127.1,29.15 c 0.49,0.01 0.98,0.04 1.46,0.09 l 68.25,-443.14 c 1.26,-8.15 7.26,-14.39 14.77,-16.33 l 11.38,-102.99 5.14,-46.51 12.01,-108.77 4.59,-41.54 15.56,-140.82 13.26,-120 4.42,-40 71.82,-650 0.49,-4.41 24.8,-224.46 8.9,-80.61 c -2.96,-1.84 -5.94,-3.67 -8.9,-5.48 -54.16,-33.09 -108.67,-61.83 -163.34,-86.69 -13.61,-6.2 -27.31,-12.18 -40.94,-17.9 -119.9,-50.29 -239.84,-82.34 -357.25,-100.64 -13.29,-2.07 -26.69,-3.99 -39.91,-5.71 -75.09,-9.8 -148.82,-14.1 -220.6,-14.1 m 737.81,1797.21 c -23.6,0 -42.67,1.86 -56.35,3.85 1.79,3.58 2.53,7.73 1.88,11.99 l -138.79,901.09 65.26,94.49 c 6.28,9.09 4,21.55 -5.09,27.83 -3.47,2.39 -7.43,3.54 -11.35,3.54 -6.35,0 -12.59,-3.01 -16.47,-8.63 l -69.79,-101.04 c -2.9,-4.21 -4.09,-9.36 -3.31,-14.41 l 25.58,-166.05 -885.08,-28.86 c 6.45,15.96 12.55,32.38 18.23,49.26 2.11,6.28 0.98,13.17 -3.01,18.45 -0.01,0.01 -2.65,3.5 -7.46,9.88 -7.81,10.36 -21.3,28.3 -38.28,51.03 5.13,3.38 9.9,7.23 14.32,11.39 14.89,14.04 26.12,31.59 35.18,49.87 13.53,27.43 22.1,56.78 27.52,79.52 1.86,7.85 3.33,14.9 4.47,20.8 0.6,-0.01 1.21,-0.01 1.83,-0.01 10.14,0.03 22.59,0.79 35.26,4.59 6.33,1.93 12.79,4.66 18.9,8.94 6.07,4.24 11.82,10.27 15.55,17.99 4.91,10.08 6.78,20.35 6.76,29.46 -0.03,12.88 -3.45,23.52 -6.72,31.08 -0.33,0.76 -0.65,1.48 -0.98,2.18 1.97,5.64 2.94,11.35 2.91,16.79 0,8.03 -1.99,15.25 -4.69,21.17 -4.07,8.87 -9.53,15.14 -13.96,19.5 -0.5,2.51 -1.28,4.87 -2.25,7.06 -3.06,6.88 -7.75,12.33 -13.44,17.07 -8.59,7.08 -19.69,12.62 -33.54,16.63 -13.86,3.99 -30.48,6.34 -50.11,6.34 -11.39,0 -23.78,-0.8 -37.22,-2.55 -13.49,-1.76 -26.08,-6.4 -37.57,-12.78 -20.11,-11.2 -37.11,-27.54 -51.87,-45.41 -22.08,-26.84 -39.12,-57.44 -50.93,-81.55 -2.83,-5.78 -5.36,-11.2 -7.56,-16.09 -20.73,29.04 -39.91,56.43 -55.48,79.55 -3.67,5.44 -9.78,8.74 -16.34,8.83 -0.08,0 -0.17,0 -0.26,0 -6.45,0 -12.54,-3.14 -16.29,-8.41 l -193.18,-271.6 c -0.17,0.01 -0.35,0.01 -0.52,0.01 h -60 c -11.05,0 -20,-8.95 -20,-20 0,-11.05 8.95,-20 20,-20 h 32.07 l -28.37,-39.89 c -6.4,-9 -4.29,-21.49 4.71,-27.89 3.51,-2.5 7.56,-3.71 11.57,-3.71 6.26,0 12.42,2.93 16.32,8.41 l 233.36,328.1 c 39.59,-57.31 93.13,-130.71 139.11,-192.9 40.48,-54.74 75.05,-100.72 88.86,-119.03 -7.71,-22.02 -16.16,-43.18 -25.21,-63.54 -0.49,-0.91 -0.92,-1.87 -1.27,-2.86 -17.52,-39.01 -37.21,-74.98 -58,-107.89 -7.88,-2.87 -13.4,-10.54 -13.14,-19.39 0,-0.25 0.02,-0.51 0.03,-0.76 -30.61,-45.7 -63.06,-85.08 -94.16,-118.23 l -16.4,-0.43 c -11.04,-0.28 -19.76,-9.46 -19.47,-20.51 0.11,-4.31 1.58,-8.26 3.98,-11.47 -33.31,-32.26 -63.48,-56.7 -85.91,-73.44 -12.47,-9.3 -22.55,-16.22 -29.44,-20.77 -3.45,-2.28 -6.1,-3.96 -7.86,-5.06 l -1.95,-1.2 -0.45,-0.28 -0.09,-0.05 c -5.71,-3.38 -9.13,-9.16 -9.72,-15.29 -2.71,-0.33 -5.79,-0.52 -9.26,-0.52 -27.55,0 -80.3,12.22 -176.56,69.2 -168.56,99.78 -8.04,634.45 116.89,966.62 39.36,104.63 105.37,189.43 177.32,256.5 133.39,124.34 287.24,187.75 329.71,203.75 21.17,-14.18 76.13,-42.34 182.35,-47.44 0.33,-0.02 0.67,-0.03 1,-0.03 10.59,0 19.43,8.32 19.95,19.02 0.2,3.99 -0.79,7.76 -2.65,10.98 1.89,0 3.76,0.03 5.63,0.09 3.99,-0.06 8.01,-0.09 12.05,-0.09 79.47,0 150.11,11.58 194.87,29.54 l 23.36,0.46 c 78.92,-5.94 147.38,-22.97 206.79,-48.36 323.8,-138.4 379.75,-525.55 407.3,-723.33 17.59,-126 86.78,-402.95 146.8,-631.41 51.29,-195.2 95.88,-355 95.88,-355 -43.16,-21.5 -83.68,-36.22 -120.64,-46.13 -6.58,-1.76 -13.05,-3.37 -19.4,-4.84 v 0 c -17.71,-4.1 -34.49,-7.09 -50.23,-9.21 -24.49,-3.3 -46.47,-4.51 -65.49,-4.51 m -1253.22,464.63 c 25.15,29.03 50.64,61.88 74.98,98.62 l 994.48,29.25 15.37,-99.81 -1084.83,-28.06 m 100.49,139.39 c 14.66,24.85 28.65,51.24 41.61,79.19 l 907.53,29.59 c 0.43,0.02 0.86,0.04 1.28,0.08 l 12.41,-80.54 -962.83,-28.32" style="fill:#f57a6e;fill-opacity:1;fill-rule:nonzero;stroke:none" id="path140" />
					<path d="m 2808.24,4177.41 c 6.11,13.18 11.99,26.71 17.61,40.59 l 885.08,28.86 6.12,-39.78 c -0.42,-0.04 -0.85,-0.06 -1.28,-0.08 l -907.53,-29.59 m -31.97,26.27 c 0.35,0.99 0.78,1.95 1.27,2.86 -0.42,-0.95 -0.85,-1.91 -1.27,-2.86" style="fill:#ffffff;fill-opacity:1;fill-rule:nonzero;stroke:none" id="path142" />
					<path d="m 2741.12,4057.45 c 8.67,13.1 17.2,26.69 25.51,40.77 l 962.83,28.32 6.14,-39.84 -994.48,-29.25 m -35.96,18.19 c -0.01,0.25 -0.03,0.51 -0.03,0.76 -0.26,8.85 5.26,16.52 13.14,19.39 -4.32,-6.85 -8.69,-13.57 -13.11,-20.15" style="fill:#ffffff;fill-opacity:1;fill-rule:nonzero;stroke:none" id="path144" />
					<path d="m 2628.54,3917.85 c 12.32,12.69 24.92,26.35 37.6,40.98 l 1084.83,28.06 6.13,-39.8 c -0.48,-0.05 -0.97,-0.08 -1.46,-0.09 l -1127.1,-29.15 m -49.43,7.15 c -2.4,3.21 -3.87,7.16 -3.98,11.47 -0.29,11.05 8.43,20.23 19.47,20.51 l 16.4,0.43 c -6.94,-7.41 -13.82,-14.5 -20.59,-21.28 -3.8,-3.81 -7.57,-7.52 -11.3,-11.13" style="fill:#ffffff;fill-opacity:1;fill-rule:nonzero;stroke:none" id="path146" />
					<path d="m 3100.12,5286.99 c -4.04,0 -8.06,0.03 -12.05,0.09 38.96,1.17 72.78,13.6 97.34,25.75 25.76,12.81 41.49,25.49 42.3,26.14 4.66,3.77 7.41,9.54 7.41,15.54 v 70.08 c 66.29,-13.42 110,-36.45 110,-62.6 0,-17.09 -18.68,-32.85 -50.13,-45.46 -44.76,-17.96 -115.4,-29.54 -194.87,-29.54 m -109.18,18.84 c -25.04,4.99 -44.2,11.24 -58.39,17.1 -13,5.37 -21.84,10.43 -27.23,13.93 -2.69,1.75 -4.52,3.12 -5.57,3.95 l -1.01,0.83 -0.04,0.04 c -3.85,3.55 -8.72,5.31 -13.58,5.31 -5.32,0 -10.62,-2.11 -14.56,-6.28 -0.88,-0.94 -1.66,-1.94 -2.33,-2.99 -8.5,7.61 -13.11,15.78 -13.11,24.27 0,21.97 30.85,41.73 80,55.44 v -69.12 c 0,-6.14 2.87,-12.01 7.72,-15.78 0.89,-0.69 15.35,-11.86 39.77,-23.06 2.66,-1.22 5.43,-2.43 8.33,-3.64" style="fill:#f57a6e;fill-opacity:1;fill-rule:nonzero;stroke:none" id="path148" />
					<path d="m 3082.54,5326.99 c -0.07,0 -0.13,0 -0.2,0 -0.04,0 -0.08,0 -0.11,0 -33.25,0 -62.3,9.36 -82.96,18.84 -10.33,4.74 -18.52,9.47 -24.02,12.94 -0.04,0.03 -0.09,0.06 -0.13,0.08 v 68.93 l 1.52,-0.04 c 26.74,-29.77 81.16,-70.75 178.12,-70.75 9.7,0 19.79,0.41 30.35,1.28 -5.21,-3.15 -11.45,-6.65 -18.53,-10.12 -21.98,-10.81 -51.9,-21.16 -84.04,-21.16" style="fill:#ffffff;fill-opacity:1;fill-rule:nonzero;stroke:none" id="path150" />
					<path d="m 3082.44,5286.99 c -3.29,5.68 -9.3,9.63 -16.34,9.98 -29.47,1.44 -54.35,4.71 -75.16,8.86 -2.9,1.21 -5.67,2.42 -8.33,3.64 -24.42,11.2 -38.88,22.37 -39.77,23.06 -4.85,3.77 -7.72,9.64 -7.72,15.78 v 69.12 30.88 c 0,3.21 0.76,6.32 2.19,9.11 5.51,-4.75 11.4,-9.3 17.69,-13.59 l -0.41,-15.51 0.41,15.51 c 2.02,-1.38 4.08,-2.73 6.19,-4.05 3.33,-2.11 6.78,-4.14 10.33,-6.08 1.58,-1.92 3.28,-3.91 5.12,-5.96 l -1.52,0.04 v -68.93 c 0.04,-0.02 0.09,-0.05 0.13,-0.08 5.5,-3.47 13.69,-8.2 24.02,-12.94 20.66,-9.48 49.71,-18.84 82.96,-18.84 0.03,0 0.07,0 0.11,0 0.07,0 0.13,0 0.2,0 32.14,0 62.06,10.35 84.04,21.16 7.08,3.47 13.32,6.97 18.53,10.12 9.64,0.79 19.63,1.97 30.01,3.57 v 81.71 c 7.14,4.79 13.76,9.92 19.91,15.3 0.06,-0.62 0.09,-1.24 0.09,-1.86 v -32.4 -70.08 c 0,-6 -2.75,-11.77 -7.41,-15.54 -0.81,-0.65 -16.54,-13.33 -42.3,-26.14 -24.56,-12.15 -58.38,-24.58 -97.34,-25.75 -1.87,-0.06 -3.74,-0.09 -5.63,-0.09 m 132.68,67.52 v 0" style="fill:#100f0d;fill-opacity:1;fill-rule:nonzero;stroke:none" id="path152" />
					<path d="m 3154.76,5356.99 c -96.96,0 -151.38,40.98 -178.12,70.75 -1.84,2.05 -3.54,4.04 -5.12,5.96 29.88,-16.37 67.17,-26.71 112.32,-26.71 0.1,0 0.2,0 0.3,0 1.32,0 2.65,0.01 3.98,0.03 51.48,0.62 92.57,14.17 124.11,34.63 0.98,0.63 1.94,1.26 2.89,1.9 v -81.71 c -10.38,-1.6 -20.37,-2.78 -30.01,-3.57 -10.56,-0.87 -20.65,-1.28 -30.35,-1.28" style="fill:#100f0d;fill-opacity:1;fill-rule:nonzero;stroke:none" id="path154" />
					<path d="m 4880.9,5299.53 -28.71,21.21 57.38,33.13 -28.67,-54.34 m -201.13,0 -12.91,24.46 171.79,99.18 c 149.55,27.38 262.94,157.78 262.96,314.67 -0.02,176.79 -144.01,319.95 -321.49,319.96 v -20 0 20 c -82.14,0 -157.1,-30.66 -213.94,-81.14 -23.96,-1.03 -47.96,-4.09 -71.74,-9.22 l 4.17,121.97 122.9,-23.27 58.26,110.42 100.35,-74.45 100.78,74.45 58.25,-110.42 122.9,23.27 4.25,-124.38 121.19,-31.73 -50.6,-114.24 95.25,-81.22 -95.25,-80.81 50.6,-114.23 -121.19,-31.73 -4.25,-124.81 -72.72,14.02 c 7.13,19.68 12.82,39.86 17.04,60.36 l -192.84,-111.33 -33.41,24.68 -100.35,-74.46 m -33.49,63.46 -24,45.5 48.89,28.23 c 23.36,-8.38 47.99,-14.14 73.5,-16.92 l -98.39,-56.81 m -147.72,24.95 -1.99,58.22 78.44,45.28 c 14.62,-12.06 30.33,-22.87 46.97,-32.24 l -123.42,-71.26 m -3.69,108.12 -0.51,15.01 -52.52,13.75 68.21,39.37 c 9.46,-14.54 20.07,-28.27 31.71,-41.06 l -46.89,-27.07 m -113.64,44.62 -8.06,2.12 30.96,70.48 66.32,38.29 c 4.74,-16.9 10.85,-33.23 18.18,-48.88 l -107.4,-62.01 m 29.34,127.19 -41.63,35.32 90.16,52.05 c -0.32,-5.76 -0.47,-11.57 -0.47,-17.4 0,-13.81 0.88,-27.39 2.58,-40.73 l -50.64,-29.24 m -77.33,65.61 -5.14,4.36 95.25,81.22 -9.03,20.57 80.99,46.76 c -12.47,-23.64 -22.06,-49.01 -28.3,-75.68 l -133.77,-77.23 m 44.22,190.05 -4.29,9.77 57.44,15.04 c -18.02,-6.97 -35.78,-15.23 -53.15,-24.81" style="fill:#f1c213;fill-opacity:1;fill-rule:nonzero;stroke:none" id="path156" />
					<path d="m 4852.19,5320.74 -38.66,28.57 192.84,111.33 c -4.22,-20.5 -9.91,-40.68 -17.04,-60.36 l -50.18,9.67 -29.58,-56.08 -57.38,-33.13 m -185.33,3.25 -20.58,39 98.39,56.81 c 11.65,-1.27 23.47,-1.93 35.45,-1.93 19.98,0 39.55,1.82 58.53,5.3 l -171.79,-99.18 m -168.25,62.27 -0.05,1.68 123.42,71.26 c 15.63,-8.81 32.07,-16.34 49.19,-22.48 l -48.89,-28.23 -0.77,1.46 -122.9,-23.69 m -2.04,59.9 -1.7,49.9 46.89,27.07 c 10.31,-11.33 21.42,-21.92 33.25,-31.69 l -78.44,-45.28 m -54.73,78.66 -60.61,15.86 107.4,62.01 c 6.27,-13.36 13.43,-26.22 21.42,-38.5 l -68.21,-39.37 m -37.71,88.46 19.22,43.75 -12.78,10.84 50.64,29.24 c 1.99,-15.55 5.1,-30.77 9.24,-45.54 l -66.32,-38.29 m -35.19,89.91 -35.7,30.29 133.77,77.23 c -4.2,-17.95 -6.89,-36.49 -7.91,-55.47 l -90.16,-52.05 m 45.38,136.44 -36.86,83.9 c 17.37,9.58 35.13,17.84 53.15,24.81 l 63.75,16.69 0.08,2.41 c 23.78,5.13 47.78,8.19 71.74,9.22 -28.72,-25.5 -52.82,-56.06 -70.87,-90.27 l -80.99,-46.76" style="fill:#f1c213;fill-opacity:1;fill-rule:nonzero;stroke:none" id="path158" />
					<path d="m 4780.12,5457.87 c -20.93,0.01 -41.32,2.27 -60.93,6.58 l 287.83,166.18 c -2.95,14.88 -6.71,29.69 -11.29,44.35 l -332.45,-191.93 c -18.08,8.21 -35.13,18.28 -50.92,29.96 l 364.83,210.63 c -5.86,12.97 -12.41,25.77 -19.68,38.35 l -0.52,0.88 -379.66,-219.2 c -12.07,12.48 -22.99,26.05 -32.58,40.56 l 383.81,221.59 c -9.05,12.02 -18.63,23.46 -28.7,34.29 l -376.44,-217.34 c -7.17,15.79 -12.91,32.36 -17.05,49.54 l 354.58,204.71 c -12.34,10.31 -25.2,19.87 -38.5,28.65 l -323.2,-186.6 c -0.41,6.2 -0.62,12.46 -0.62,18.77 0,14.29 1.07,28.33 3.15,42.05 l 268.71,155.14 c -16.93,8.07 -34.34,15.01 -52.13,20.8 l -200.35,-115.67 c 14.27,36.12 35.88,68.57 63.03,95.6 0.1,0.1 0.2,0.2 0.3,0.3 l 63.67,36.76 c -5,0.71 -10.02,1.33 -15.05,1.86 43.44,27.31 94.89,43.11 150.16,43.12 v 20 0 -20 c 77.82,-0.01 148.08,-31.34 199.08,-82.04 50.96,-50.74 82.4,-120.58 82.41,-197.92 -0.01,-62.74 -20.69,-120.55 -55.71,-167.22 L 4814.12,5459.9 c -11.14,-1.34 -22.49,-2.02 -34,-2.03" style="fill:#f5a00e;fill-opacity:1;fill-rule:nonzero;stroke:none" id="path160" />
					<path d="m 4814.12,5459.9 191.78,110.72 c -8.15,-10.87 -17.08,-21.13 -26.7,-30.71 -43.45,-43.2 -100.89,-72.33 -165.08,-80.01 m -94.93,4.55 c -19.48,4.27 -38.19,10.54 -55.91,18.6 l 332.45,191.93 c 4.58,-14.66 8.34,-29.47 11.29,-44.35 l -287.83,-166.18 m -106.83,48.56 c -11.09,8.2 -21.56,17.19 -31.32,26.9 -1.25,1.24 -2.49,2.5 -3.71,3.76 l 379.66,219.2 0.52,-0.88 c 7.27,-12.58 13.82,-25.38 19.68,-38.35 l -364.83,-210.63 m -67.61,71.22 c -8.09,12.22 -15.23,25.09 -21.33,38.54 l 376.44,217.34 c 10.07,-10.83 19.65,-22.27 28.7,-34.29 l -383.81,-221.59 m -38.38,88.08 c -3.65,15.14 -6.06,30.76 -7.12,46.76 l 323.2,186.6 c 13.3,-8.78 26.16,-18.34 38.5,-28.65 l -354.58,-204.71 m -4.59,107.58 c 3.17,20.94 8.67,41.12 16.23,60.27 l 200.35,115.67 c 17.79,-5.79 35.2,-12.73 52.13,-20.8 l -268.71,-155.14 m 79.56,156.17 c 14.7,14.57 31,27.55 48.62,38.62 5.03,-0.53 10.05,-1.15 15.05,-1.86 l -63.67,-36.76" style="fill:#f5a00e;fill-opacity:1;fill-rule:nonzero;stroke:none" id="path162" />
					<path d="m 4744.67,5419.8 c -25.51,2.78 -50.14,8.54 -73.5,16.92 l 48.02,27.73 c 19.61,-4.31 40,-6.57 60.93,-6.58 11.51,0.01 22.86,0.69 34,2.03 l -69.45,-40.1 m 93.98,3.37 175.94,101.58 c 0.89,16.83 0.79,33.77 -0.32,50.7 l -8.37,-4.83 c 35.02,46.67 55.7,104.48 55.71,167.22 -0.01,77.34 -31.45,147.18 -82.41,197.92 -51,50.7 -121.26,82.03 -199.08,82.04 v 20 20 c 177.48,-0.01 321.47,-143.17 321.49,-319.96 -0.02,-156.89 -113.41,-287.29 -262.96,-314.67 m -216.67,36.03 c -16.64,9.37 -32.35,20.18 -46.97,32.24 l 37.35,21.57 c 15.79,-11.68 32.84,-21.75 50.92,-29.96 l -41.3,-23.85 m -80.22,63.93 c -11.64,12.79 -22.25,26.52 -31.71,41.06 l 34.7,20.04 c 9.59,-14.51 20.51,-28.08 32.58,-40.56 l -35.57,-20.54 m -53.13,79.56 c -7.33,15.65 -13.44,31.98 -18.18,48.88 l 35.92,20.74 c 4.14,-17.18 9.88,-33.75 17.05,-49.54 l -34.79,-20.08 m -27.42,94.42 c -1.7,13.34 -2.58,26.92 -2.58,40.73 0,5.83 0.15,11.64 0.47,17.4 l 42.68,24.65 c -2.08,-13.72 -3.15,-27.76 -3.15,-42.05 0,-6.31 0.21,-12.57 0.62,-18.77 l -38.04,-21.96 m 5.8,113.6 c 6.24,26.67 15.83,52.04 28.3,75.68 l 86.03,49.67 c -0.1,-0.1 -0.2,-0.2 -0.3,-0.3 -27.15,-27.03 -48.76,-59.48 -63.03,-95.6 l -51,-29.45 m 162.95,163.97 c -14.82,1.56 -29.73,2.36 -44.7,2.38 v 0 h -0.89 v 0 c -6.05,0 -12.13,-0.13 -18.19,-0.4 56.84,50.48 131.8,81.14 213.94,81.14 v -20 -20 c -55.27,-0.01 -106.72,-15.81 -150.16,-43.12" style="fill:#100f0d;fill-opacity:1;fill-rule:nonzero;stroke:none" id="path164" />
					<path d="m 4780.12,5417.87 c -11.98,0 -23.8,0.66 -35.45,1.93 l 69.45,40.1 c 64.19,7.68 121.63,36.81 165.08,80.01 9.62,9.58 18.55,19.84 26.7,30.71 l 8.37,4.83 c 1.11,-16.93 1.21,-33.87 0.32,-50.7 l -175.94,-101.58 c -18.98,-3.48 -38.55,-5.3 -58.53,-5.3 m -108.95,18.85 c -17.12,6.14 -33.56,13.67 -49.19,22.48 l 41.3,23.85 c 17.72,-8.06 36.43,-14.33 55.91,-18.6 l -48.02,-27.73 m -96.16,54.72 c -11.83,9.77 -22.94,20.36 -33.25,31.69 l 35.57,20.54 c 1.22,-1.26 2.46,-2.52 3.71,-3.76 9.76,-9.71 20.23,-18.7 31.32,-26.9 l -37.35,-21.57 m -64.96,72.75 c -7.99,12.28 -15.15,25.14 -21.42,38.5 l 34.79,20.08 c 6.1,-13.45 13.24,-26.32 21.33,-38.54 l -34.7,-20.04 m -39.6,87.38 c -4.14,14.77 -7.25,29.99 -9.24,45.54 l 38.04,21.96 c 1.06,-16 3.47,-31.62 7.12,-46.76 l -35.92,-20.74 m -11.35,103.67 c 1.02,18.98 3.71,37.52 7.91,55.47 l 51,29.45 c -7.56,-19.15 -13.06,-39.33 -16.23,-60.27 l -42.68,-24.65 m 36.21,131.15 c 18.05,34.21 42.15,64.77 70.87,90.27 6.06,0.27 12.14,0.4 18.19,0.4 h 0.89 c 14.97,-0.02 29.88,-0.82 44.7,-2.38 -17.62,-11.07 -33.92,-24.05 -48.62,-38.62 l -86.03,-49.67" style="fill:#100f0d;fill-opacity:1;fill-rule:nonzero;stroke:none" id="path166" />
					<path d="m 3084.14,5446.99 c -43.98,0.05 -76.49,10.87 -101.66,26.65 -18.86,11.87 -33.65,26.71 -45.35,42.58 -17.54,23.76 -27.95,49.86 -33.79,69.9 -2.93,10.02 -4.72,18.5 -5.77,24.36 -0.53,2.93 -0.86,5.21 -1.06,6.69 l -0.21,1.62 -0.03,0.34 v 0 c -0.91,9.3 -8.14,16.73 -17.42,17.9 v 0 0 h -0.02 v 0 0 c -1.07,0.09 -27.01,3.84 -50.7,15.36 -12,5.76 -23.22,13.42 -30.81,22.51 -3.83,4.55 -6.81,9.42 -8.9,14.82 -2.07,5.42 -3.29,11.4 -3.3,18.55 0,1.64 0.06,3.35 0.21,5.11 v 0.01 c 0.76,9.57 2.6,17.09 4.93,22.84 3.54,8.65 7.89,13.36 12.55,16.46 4.69,3.04 10.18,4.57 16.57,4.59 0.05,0 0.09,0 0.13,0 7.22,0 15.39,-2.2 22.63,-6.19 7.29,-3.99 13.5,-9.73 17.28,-15.8 3.78,-6.03 10.28,-9.37 16.95,-9.37 3.24,0 6.51,0.78 9.54,2.43 v 0 0 0 c 0.75,0.42 41.15,22.37 86.94,60.76 22.9,19.22 47.16,42.55 68.47,69.64 12.88,16.39 24.69,34.16 34.36,53.28 9.67,-14.95 22.62,-33.39 38.82,-53.07 39.31,-47.64 97.78,-102.96 175.87,-131.81 2.25,-0.83 4.59,-1.23 6.91,-1.23 4.82,0 9.57,1.74 13.29,5.06 v 0 0 h 0.01 c 0.32,0.31 6.99,6.05 16.16,11.34 9.07,5.37 20.58,9.8 29.32,9.8 0.14,0 0.29,-0.01 0.43,-0.01 4.59,-0.03 8.32,-0.9 12.12,-3.06 3.77,-2.19 7.98,-5.92 12.42,-13.33 2.98,-5.17 4.05,-9.67 4.09,-14.65 0.04,-7.37 -2.93,-16.36 -9.1,-25.87 -9.12,-14.24 -25.09,-28.71 -41.07,-38.81 -7.95,-5.08 -15.9,-9.12 -22.66,-11.72 -6.47,-2.56 -12,-3.6 -14.21,-3.6 -0.08,0 -0.16,0 -0.23,0 l -0.69,0.04 c -1.08,0.17 -2.16,0.26 -3.23,0.26 -4.48,0 -8.84,-1.5 -12.4,-4.33 -4.42,-3.5 -7.14,-8.65 -7.53,-14.27 v 0 c -0.01,-1.23 -4.06,-46.68 -29.39,-89.82 -12.65,-21.62 -30.31,-42.63 -55.28,-58.48 -25.02,-15.81 -57.54,-26.83 -101.73,-27.46 -1.16,-0.01 -2.31,-0.02 -3.46,-0.02 m -89.04,140 c -3.33,0 -6.7,-0.83 -9.8,-2.58 -9.62,-5.42 -13.03,-17.62 -7.6,-27.24 0.67,-1.13 8.59,-15.19 24.41,-29.87 7.93,-7.32 17.9,-14.81 30.11,-20.58 12.16,-5.76 26.66,-9.73 42.82,-9.73 0.03,0 0.05,0 0.08,0 11.05,0 20,8.95 20,20 0,11.05 -8.95,20 -20,20 -9.72,0.01 -18.15,2.29 -25.82,5.9 -11.47,5.37 -21.03,14.04 -27.48,21.45 -3.22,3.68 -5.67,7.01 -7.24,9.32 -0.79,1.15 -1.36,2.05 -1.7,2.6 l -0.34,0.56 h -0.01 c -3.67,6.51 -10.45,10.17 -17.43,10.17 m 70.03,6.24 c -7.77,0 -15.15,-4.55 -18.4,-12.14 -4.34,-10.16 0.37,-21.91 10.53,-26.25 0.53,-0.23 4.84,-2.06 11.31,-3.94 6.5,-1.86 15.07,-3.87 24.97,-3.91 4.96,0.01 10.31,0.52 15.95,2.27 5.6,1.73 11.58,4.87 16.54,9.91 v 0 c 4.68,4.78 6.6,9.88 7.71,14.16 1.09,4.43 1.36,8.46 1.38,12.5 -0.05,9.86 -1.82,20.07 -4.18,30.78 -7.16,31.76 -20.63,67.02 -20.77,67.48 -3.04,7.99 -10.64,12.91 -18.71,12.91 -2.36,0 -4.75,-0.43 -7.09,-1.31 -10.33,-3.92 -15.52,-15.47 -11.6,-25.8 l 0.23,-0.61 c 1,-2.66 5.1,-13.8 9.5,-27.6 l -12.46,-49.07 c -1.63,0.42 -3.28,0.62 -4.91,0.62 m 94.99,153.76 c -8.28,0 -15,-11.19 -15,-25 0,-13.81 6.72,-25 15,-25 8.28,0 15,11.19 15,25 0,13.81 -6.72,25 -15,25 m -130,0 c -8.28,0 -15,-11.19 -15,-25 0,-13.81 6.72,-25 15,-25 8.28,0 15,11.19 15,25 0,13.81 -6.72,25 -15,25" style="fill:#ffffff;fill-opacity:1;fill-rule:nonzero;stroke:none" id="path168" />
					<path d="m 3083.84,5406.99 c -45.15,0 -82.44,10.34 -112.32,26.71 -3.55,1.94 -7,3.97 -10.33,6.08 -2.11,1.32 -4.17,2.67 -6.19,4.05 v 0 c -6.29,4.29 -12.18,8.84 -17.69,13.59 -19.32,16.63 -34.06,35.67 -45.22,54.44 -20.76,35.05 -29.63,69.25 -33.27,88.21 -4.64,1.02 -10.13,2.37 -16.17,4.15 -17.57,5.21 -39.88,13.77 -59.51,29.13 -13.01,10.24 -24.94,23.86 -31.87,41.53 -3.94,10.06 -6.16,21.33 -6.15,33.39 0,2.72 0.11,5.5 0.34,8.32 v -0.01 c 1.55,19.4 6.59,35.72 14.97,48.74 8.31,13.01 20.11,22.32 32.89,27.2 8.51,3.3 17.37,4.75 26.04,4.75 0.01,0 0.02,0 0.02,0 14.89,-0.02 29.28,-4.15 42.02,-11.13 7.06,-3.89 13.65,-8.68 19.48,-14.33 8.88,5.49 21.35,13.6 35.62,23.99 28.77,20.95 64.8,51.29 93.37,87.67 19.09,24.25 34.79,51.1 43.43,79.37 2.4,7.86 9.28,13.4 17.47,14.08 0.56,0.05 1.12,0.07 1.68,0.07 7.54,0 14.46,-4.23 17.87,-11.07 l 0.01,-0.03 0.13,-0.25 0.59,-1.14 c 0.55,-1.05 1.4,-2.63 2.54,-4.7 2.28,-4.14 5.75,-10.21 10.38,-17.68 9.26,-14.96 23.15,-35.57 41.41,-57.73 34.66,-42.17 85.06,-89.56 148.55,-115.71 3.21,2.3 7.1,4.91 11.55,7.55 12.78,7.43 30.16,15.72 51.01,15.88 0.06,0 0.13,0 0.2,0 10.3,0 21.53,-2.4 31.88,-8.4 10.44,-5.98 19.62,-15.35 26.85,-27.57 l 0.06,-0.09 c 6.54,-11.06 9.68,-23.25 9.64,-34.98 0,-11.54 -2.85,-22.5 -7.3,-32.51 -4.46,-10.03 -10.51,-19.22 -17.46,-27.67 -13.94,-16.86 -31.45,-30.88 -48.9,-41.31 -11.68,-6.94 -23.26,-12.27 -34.39,-15.49 -1.83,-0.52 -3.65,-0.98 -5.47,-1.39 -1.13,-6.46 -2.78,-14.45 -5.18,-23.51 -6.26,-23.49 -17.53,-54.23 -38.38,-83.66 -9.06,-12.77 -19.96,-25.28 -33.01,-36.68 -6.15,-5.38 -12.77,-10.51 -19.91,-15.3 -0.95,-0.64 -1.91,-1.27 -2.89,-1.9 -31.54,-20.46 -72.63,-34.01 -124.11,-34.63 -1.33,-0.02 -2.66,-0.03 -3.98,-0.03 -0.1,0 -0.2,0 -0.3,0 m -187.57,212.14 0.03,-0.34 0.21,-1.62 c 0.2,-1.48 0.53,-3.76 1.06,-6.69 1.05,-5.86 2.84,-14.34 5.77,-24.36 5.84,-20.04 16.25,-46.14 33.79,-69.9 11.7,-15.87 26.49,-30.71 45.35,-42.58 25.17,-15.78 57.68,-26.6 101.66,-26.65 1.15,0 2.3,0.01 3.46,0.02 44.19,0.63 76.71,11.65 101.73,27.46 24.97,15.85 42.63,36.86 55.28,58.48 25.33,43.14 29.38,88.59 29.39,89.82 v 0 0 c 0.39,5.62 3.11,10.77 7.53,14.27 3.56,2.83 7.92,4.33 12.4,4.33 1.07,0 2.15,-0.09 3.23,-0.26 l 0.69,-0.04 c 0.07,0 0.15,0 0.23,0 2.21,0 7.74,1.04 14.21,3.6 6.76,2.6 14.71,6.64 22.66,11.72 15.98,10.1 31.95,24.57 41.07,38.81 6.17,9.51 9.14,18.5 9.1,25.87 -0.04,4.98 -1.11,9.48 -4.09,14.65 -4.44,7.41 -8.65,11.14 -12.42,13.33 -3.8,2.16 -7.53,3.03 -12.12,3.06 -0.14,0 -0.29,0.01 -0.43,0.01 -8.74,0 -20.25,-4.43 -29.32,-9.8 -9.17,-5.29 -15.84,-11.03 -16.16,-11.34 h -0.01 v 0 0 c -3.72,-3.32 -8.47,-5.06 -13.29,-5.06 -2.32,0 -4.66,0.4 -6.91,1.23 -78.09,28.85 -136.56,84.17 -175.87,131.81 -16.2,19.68 -29.15,38.12 -38.82,53.07 -9.67,-19.12 -21.48,-36.89 -34.36,-53.28 -21.31,-27.09 -45.57,-50.42 -68.47,-69.64 -45.79,-38.39 -86.19,-60.34 -86.94,-60.76 v 0 0 0 c -3.03,-1.65 -6.3,-2.43 -9.54,-2.43 -6.67,0 -13.17,3.34 -16.95,9.37 -3.78,6.07 -9.99,11.81 -17.28,15.8 -7.24,3.99 -15.41,6.19 -22.63,6.19 -0.04,0 -0.08,0 -0.13,0 -6.39,-0.02 -11.88,-1.55 -16.57,-4.59 -4.66,-3.1 -9.01,-7.81 -12.55,-16.46 -2.33,-5.75 -4.17,-13.27 -4.93,-22.84 v -0.01 c -0.15,-1.76 -0.21,-3.47 -0.21,-5.11 0.01,-7.15 1.23,-13.13 3.3,-18.55 2.09,-5.4 5.07,-10.27 8.9,-14.82 7.59,-9.09 18.81,-16.75 30.81,-22.51 23.69,-11.52 49.63,-15.27 50.7,-15.36 v 0 0 h 0.02 v 0 0 c 9.28,-1.17 16.51,-8.6 17.42,-17.9 v 0 m 380.14,3.46 v 0 m 0,0 v 0 m 104.63,113.11 v 0 0 m -504.68,10.22 v 0 l 16.94,10.63 -16.94,-10.63" style="fill:#100f0d;fill-opacity:1;fill-rule:nonzero;stroke:none" id="path170" />
					<path d="m 3093.33,5586.99 c -3.93,0 -9.44,1.08 -13.62,2.32 -2.13,0.62 -3.95,1.25 -5.17,1.7 l -1.33,0.51 -0.23,0.1 v 0 0 l -0.06,0.02 c -0.95,0.4 -1.91,0.73 -2.88,0.97 l 12.46,49.07 c 0.91,-2.85 1.84,-5.82 2.75,-8.85 2.65,-8.84 5.21,-18.21 7.03,-26.67 1.68,-7.66 2.69,-14.71 2.82,-19.12 -0.43,-0.03 -0.91,-0.05 -1.43,-0.05 -0.04,0 -0.09,0 -0.13,0 -0.07,0 -0.14,0 -0.21,0" style="fill:#ffffff;fill-opacity:1;fill-rule:nonzero;stroke:none" id="path172" />
					<path d="m 3093.54,5546.99 c -9.9,0.04 -18.47,2.05 -24.97,3.91 -6.47,1.88 -10.78,3.71 -11.31,3.94 -10.16,4.34 -14.87,16.09 -10.53,26.25 3.25,7.59 10.63,12.14 18.4,12.14 1.63,0 3.28,-0.2 4.91,-0.62 0.97,-0.24 1.93,-0.57 2.88,-0.97 v 0 l 0.06,-0.02 v 0 0 l 0.23,-0.1 1.33,-0.51 c 1.22,-0.45 3.04,-1.08 5.17,-1.7 4.18,-1.24 9.69,-2.32 13.62,-2.32 0.07,0 0.14,0 0.21,0 0.04,0 0.09,0 0.13,0 0.52,0 1,0.02 1.43,0.05 -0.13,4.41 -1.14,11.46 -2.82,19.12 -1.82,8.46 -4.38,17.83 -7.03,26.67 -0.91,3.03 -1.84,6 -2.75,8.85 -4.4,13.8 -8.5,24.94 -9.5,27.6 l -0.23,0.61 c -3.92,10.33 1.27,21.88 11.6,25.8 2.34,0.88 4.73,1.31 7.09,1.31 8.07,0 15.67,-4.92 18.71,-12.91 0.14,-0.46 13.61,-35.72 20.77,-67.48 2.36,-10.71 4.13,-20.92 4.18,-30.78 -0.02,-4.04 -0.29,-8.07 -1.38,-12.5 -1.11,-4.28 -3.03,-9.38 -7.71,-14.16 v 0 c -4.96,-5.04 -10.94,-8.18 -16.54,-9.91 -5.64,-1.75 -10.99,-2.26 -15.95,-2.27 m 11.57,33.06 v 0 m 0,0 v 0 m -8.39,2.64 v 0" style="fill:#100f0d;fill-opacity:1;fill-rule:nonzero;stroke:none" id="path174" />
					<path d="m 3075.04,5496.99 c -16.16,0 -30.66,3.97 -42.82,9.73 -12.21,5.77 -22.18,13.26 -30.11,20.58 -15.82,14.68 -23.74,28.74 -24.41,29.87 -5.43,9.62 -2.02,21.82 7.6,27.24 3.1,1.75 6.47,2.58 9.8,2.58 6.98,0 13.76,-3.66 17.43,-10.17 h 0.01 l 0.34,-0.56 c 0.34,-0.55 0.91,-1.45 1.7,-2.6 1.57,-2.31 4.02,-5.64 7.24,-9.32 6.45,-7.41 16.01,-16.08 27.48,-21.45 7.67,-3.61 16.1,-5.89 25.82,-5.9 11.05,0 20,-8.95 20,-20 0,-11.05 -8.95,-20 -20,-20 -0.03,0 -0.05,0 -0.08,0" style="fill:#100f0d;fill-opacity:1;fill-rule:nonzero;stroke:none" id="path176" />
					<path d="m 3030.12,5696.99 c -8.28,0 -15,11.19 -15,25 0,13.81 6.72,25 15,25 8.28,0 15,-11.19 15,-25 0,-13.81 -6.72,-25 -15,-25" style="fill:#100f0d;fill-opacity:1;fill-rule:nonzero;stroke:none" id="path178" />
					<path d="m 3160.12,5696.99 c -8.28,0 -15,11.19 -15,25 0,13.81 6.72,25 15,25 8.28,0 15,-11.19 15,-25 0,-13.81 -6.72,-25 -15,-25" style="fill:#100f0d;fill-opacity:1;fill-rule:nonzero;stroke:none" id="path180" />
					<path d="m 3845.09,3486.99 c -1.7,0 -3.37,0.22 -4.97,0.63 -7.51,1.94 -13.51,8.18 -14.77,16.33 l -68.25,443.14 -6.13,39.8 -15.37,99.81 -6.14,39.84 -12.41,80.54 -6.12,39.78 -25.58,166.05 c -0.78,5.05 0.41,10.2 3.31,14.41 l 69.79,101.04 c 3.88,5.62 10.12,8.63 16.47,8.63 3.92,0 7.88,-1.15 11.35,-3.54 9.09,-6.28 11.37,-18.74 5.09,-27.83 l -65.26,-94.49 138.79,-901.09 c 0.65,-4.26 -0.09,-8.41 -1.88,-11.99 -2.8,-5.6 -8.18,-9.8 -14.85,-10.83 -0.28,-0.04 -0.56,-0.08 -0.84,-0.11 -0.75,-0.08 -1.49,-0.12 -2.23,-0.12" style="fill:#100f0d;fill-opacity:1;fill-rule:nonzero;stroke:none" id="path182" />
					<path d="m 2463.62,3786.99 c -1.78,0 -3.55,0.23 -5.25,0.7 -4.86,1.31 -9.22,4.45 -11.99,9.11 -2.24,3.8 -3.09,8.03 -2.69,12.11 0.59,6.13 4.01,11.91 9.72,15.29 l 0.09,0.05 0.45,0.28 1.95,1.2 c 1.76,1.1 4.41,2.78 7.86,5.06 6.89,4.55 16.97,11.47 29.44,20.77 22.43,16.74 52.6,41.18 85.91,73.44 3.73,3.61 7.5,7.32 11.3,11.13 6.77,6.78 13.65,13.87 20.59,21.28 31.1,33.15 63.55,72.53 94.16,118.23 4.42,6.58 8.79,13.3 13.11,20.15 20.79,32.91 40.48,68.88 58,107.89 0.42,0.95 0.85,1.91 1.27,2.86 9.05,20.36 17.5,41.52 25.21,63.54 -13.81,18.31 -48.38,64.29 -88.86,119.03 -45.98,62.19 -99.52,135.59 -139.11,192.9 l -233.36,-328.1 c -3.9,-5.48 -10.06,-8.41 -16.32,-8.41 -4.01,0 -8.06,1.21 -11.57,3.71 -9,6.4 -11.11,18.89 -4.71,27.89 l 28.37,39.89 h 27.93 c 11.05,0 20,8.95 20,20 0,10.87 -8.67,19.72 -19.48,19.99 l 193.18,271.6 c 3.75,5.27 9.84,8.41 16.29,8.41 0.09,0 0.18,0 0.26,0 6.56,-0.09 12.67,-3.39 16.34,-8.83 15.57,-23.12 34.75,-50.51 55.48,-79.55 -6.96,-15.45 -10.72,-25.68 -10.85,-26.03 -2.32,-6.35 -1.32,-13.35 2.7,-18.78 l 16.08,11.89 -16.08,-11.89 117.37,-158.7 c 3.86,-5.22 9.9,-8.11 16.1,-8.11 2.57,0 5.17,0.5 7.66,1.53 5.37,2.23 10.42,4.97 15.16,8.1 16.98,-22.73 30.47,-40.67 38.28,-51.03 4.81,-6.38 7.45,-9.87 7.46,-9.88 3.99,-5.28 5.12,-12.17 3.01,-18.45 -5.68,-16.88 -11.78,-33.3 -18.23,-49.26 -5.62,-13.88 -11.5,-27.41 -17.61,-40.59 -12.96,-27.95 -26.95,-54.34 -41.61,-79.19 -8.31,-14.08 -16.84,-27.67 -25.51,-40.77 -24.34,-36.74 -49.83,-69.59 -74.98,-98.62 -12.68,-14.63 -25.28,-28.29 -37.6,-40.98 -3.3,-3.4 -6.57,-6.73 -9.83,-9.99 -78.72,-78.81 -143.88,-117.45 -144.93,-118.08 -3.19,-1.89 -6.7,-2.79 -10.16,-2.79" style="fill:#100f0d;fill-opacity:1;fill-rule:nonzero;stroke:none" id="path184" />
					<path d="m 2365.12,4316.99 h -60 c -11.05,0 -20,8.95 -20,20 0,11.05 8.95,20 20,20 h 60 c 0.17,0 0.35,0 0.52,-0.01 10.81,-0.27 19.48,-9.12 19.48,-19.99 0,-11.05 -8.95,-20 -20,-20" style="fill:#100f0d;fill-opacity:1;fill-rule:nonzero;stroke:none" id="path186" />
					<path d="m 2777.88,4383.34 -100.08,135.31 c 6,14.46 18.64,42.73 36.15,70.54 11.81,18.82 25.88,37.37 40.91,51.16 7.5,6.9 15.2,12.61 22.84,16.74 5.46,2.96 10.85,5.12 16.21,6.46 -8.4,-5.67 -11.31,-16.89 -6.42,-26.01 3.61,-6.73 10.51,-10.55 17.65,-10.55 3.19,0 6.42,0.76 9.43,2.37 9.52,5.2 23.12,7.63 37.26,7.63 0.15,0 0.31,0 0.46,0 0.05,0 0.09,0 0.14,0 14.22,0 28.64,-2.25 39.3,-4.55 5.34,-1.15 9.75,-2.3 12.76,-3.15 0.54,-0.15 1.03,-0.29 1.48,-0.42 0.29,-0.35 0.58,-0.71 0.85,-1.08 0.99,-1.31 1.83,-2.69 2.41,-3.97 -9.2,1.72 -20.7,3.15 -33.62,3.17 -17.67,-0.01 -38.15,-2.72 -58.55,-11.7 -10.11,-4.45 -14.7,-16.25 -10.24,-26.36 3.29,-7.49 10.62,-11.94 18.31,-11.94 2.69,0 5.43,0.54 8.05,1.7 13.94,6.15 28.81,8.3 42.37,8.3 0.02,0 0.04,0 0.06,0 0.02,0 0.04,0 0.07,0 12.14,0 23.12,-1.73 30.89,-3.45 2.32,-0.51 4.36,-1.02 6.05,-1.48 1.39,-3.76 2.56,-8.39 2.5,-12.89 -0.02,-3.92 -0.71,-7.77 -2.74,-11.98 -0.41,-0.81 -0.97,-1.59 -2.58,-2.75 -2.33,-1.71 -7.11,-3.63 -12.92,-4.71 -5.73,-1.12 -12.3,-1.54 -18.07,-1.54 -0.05,0 -0.11,0 -0.16,0 -4.61,0 -8.71,0.24 -11.57,0.49 -1.42,0.12 -2.54,0.24 -3.27,0.32 l -0.77,0.1 -0.12,0.01 v 0 0 c -0.94,0.14 -1.88,0.2 -2.82,0.2 -4.34,0 -8.58,-1.41 -12.08,-4.07 -4.26,-3.23 -7.04,-8.01 -7.74,-13.31 l -0.03,-0.27 c -0.47,-3.46 -5.65,-38.57 -18.38,-74.94 -6.33,-18.16 -14.57,-36.59 -24.44,-51.27 -4.92,-7.34 -10.22,-13.73 -15.7,-18.79 -1.28,-1.18 -2.56,-2.28 -3.85,-3.32" style="fill:#ffffff;fill-opacity:1;fill-rule:nonzero;stroke:none" id="path188" />
					<path d="m 2772.51,4336.99 c -6.2,0 -12.24,2.89 -16.1,8.11 l -117.37,158.7 16.08,11.89 18.78,-6.88 -18.78,6.88 -16.08,-11.89 c -4.02,5.43 -5.02,12.43 -2.7,18.78 0.13,0.35 3.89,10.58 10.85,26.03 2.2,4.89 4.73,10.31 7.56,16.09 11.81,24.11 28.85,54.71 50.93,81.55 14.76,17.87 31.76,34.21 51.87,45.41 11.49,6.38 24.08,11.02 37.57,12.78 13.44,1.75 25.83,2.55 37.22,2.55 19.63,0 36.25,-2.35 50.11,-6.34 13.85,-4.01 24.95,-9.55 33.54,-16.63 5.69,-4.74 10.38,-10.19 13.44,-17.07 0.97,-2.19 1.75,-4.55 2.25,-7.06 4.43,-4.36 9.89,-10.63 13.96,-19.5 2.7,-5.92 4.69,-13.14 4.69,-21.17 0.03,-5.44 -0.94,-11.15 -2.91,-16.79 0.33,-0.7 0.65,-1.42 0.98,-2.18 3.27,-7.56 6.69,-18.2 6.72,-31.08 0.02,-9.11 -1.85,-19.38 -6.76,-29.46 -3.73,-7.72 -9.48,-13.75 -15.55,-17.99 -6.11,-4.28 -12.57,-7.01 -18.9,-8.94 -12.67,-3.8 -25.12,-4.56 -35.26,-4.59 -0.62,0 -1.23,0 -1.83,0.01 -1.14,-5.9 -2.61,-12.95 -4.47,-20.8 -5.42,-22.74 -13.99,-52.09 -27.52,-79.52 -9.06,-18.28 -20.29,-35.83 -35.18,-49.87 -4.42,-4.16 -9.19,-8.01 -14.32,-11.39 -4.74,-3.13 -9.79,-5.87 -15.16,-8.1 -2.49,-1.03 -5.09,-1.53 -7.66,-1.53 m -94.71,181.66 100.08,-135.31 c 1.29,1.04 2.57,2.14 3.85,3.32 5.48,5.06 10.78,11.45 15.7,18.79 9.87,14.68 18.11,33.11 24.44,51.27 12.73,36.37 17.91,71.48 18.38,74.94 l 0.03,0.27 c 0.7,5.3 3.48,10.08 7.74,13.31 3.5,2.66 7.74,4.07 12.08,4.07 0.94,0 1.88,-0.06 2.82,-0.2 v 0 0 0 l 0.12,-0.01 0.77,-0.1 c 0.73,-0.08 1.85,-0.2 3.27,-0.32 2.86,-0.25 6.96,-0.49 11.57,-0.49 0.05,0 0.11,0 0.16,0 5.77,0 12.34,0.42 18.07,1.54 5.81,1.08 10.59,3 12.92,4.71 1.61,1.16 2.17,1.94 2.58,2.75 2.03,4.21 2.72,8.06 2.74,11.98 0.06,4.5 -1.11,9.13 -2.5,12.89 1.15,-0.31 2.14,-0.6 2.95,-0.84 1.02,-0.31 1.77,-0.55 2.23,-0.71 l 0.45,-0.15 v 0 c 2.27,-0.83 4.59,-1.22 6.87,-1.22 8.15,0 15.81,5.02 18.78,13.13 3.8,10.37 -1.53,21.86 -11.91,25.65 -0.8,0.27 -9.32,3.39 -22.76,5.9 -0.58,1.28 -1.42,2.66 -2.41,3.97 -0.27,0.37 -0.56,0.73 -0.85,1.08 0.79,-0.23 1.44,-0.42 1.92,-0.57 l 0.8,-0.25 0.15,-0.05 v 0 c 2.08,-0.69 4.2,-1.02 6.28,-1.02 8.39,0 16.21,5.33 18.99,13.73 3.47,10.49 -2.22,21.8 -12.71,25.27 -0.51,0.17 -8.7,2.86 -21.27,5.56 -12.58,2.7 -29.51,5.44 -47.84,5.45 -18.29,-0.05 -38.27,-2.62 -56.62,-12.37 -0.61,-0.33 -1.2,-0.69 -1.76,-1.07 -5.36,-1.34 -10.75,-3.5 -16.21,-6.46 -7.64,-4.13 -15.34,-9.84 -22.84,-16.74 -15.03,-13.79 -29.1,-32.34 -40.91,-51.16 -17.51,-27.81 -30.15,-56.08 -36.15,-70.54" style="fill:#100f0d;fill-opacity:1;fill-rule:nonzero;stroke:none" id="path190" />
					<path d="m 2915.12,4626.98 c -2.08,0 -4.2,0.33 -6.28,1.02 v 0 0 l -0.15,0.05 -0.8,0.25 c -0.48,0.15 -1.13,0.34 -1.92,0.57 -0.45,0.13 -0.94,0.27 -1.48,0.42 -3.01,0.85 -7.42,2 -12.76,3.15 -10.66,2.3 -25.08,4.55 -39.3,4.55 -0.05,0 -0.09,0 -0.14,0 -0.15,0 -0.31,0 -0.46,0 -14.14,0 -27.74,-2.43 -37.26,-7.63 -3.01,-1.61 -6.24,-2.37 -9.43,-2.37 -7.14,0 -14.04,3.82 -17.65,10.55 -4.89,9.12 -1.98,20.34 6.42,26.01 0.56,0.38 1.15,0.74 1.76,1.07 18.35,9.75 38.33,12.32 56.62,12.37 18.33,-0.01 35.26,-2.75 47.84,-5.45 12.57,-2.7 20.76,-5.39 21.27,-5.56 10.49,-3.47 16.18,-14.78 12.71,-25.27 -2.78,-8.4 -10.6,-13.73 -18.99,-13.73" style="fill:#100f0d;fill-opacity:1;fill-rule:nonzero;stroke:none" id="path192" />
					<path d="m 2825.13,4576.99 c -7.69,0 -15.02,4.45 -18.31,11.94 -4.46,10.11 0.13,21.91 10.24,26.36 20.4,8.98 40.88,11.69 58.55,11.7 12.92,-0.02 24.42,-1.45 33.62,-3.17 13.44,-2.51 21.96,-5.63 22.76,-5.9 10.38,-3.79 15.71,-15.28 11.91,-25.65 -2.97,-8.11 -10.63,-13.13 -18.78,-13.13 -2.28,0 -4.6,0.39 -6.87,1.22 v 0 l -0.45,0.15 c -0.46,0.16 -1.21,0.4 -2.23,0.71 -0.81,0.24 -1.8,0.53 -2.95,0.84 -1.69,0.46 -3.73,0.97 -6.05,1.48 -7.77,1.72 -18.75,3.45 -30.89,3.45 -0.03,0 -0.05,0 -0.07,0 -0.02,0 -0.04,0 -0.06,0 -13.56,0 -28.43,-2.15 -42.37,-8.3 -2.62,-1.16 -5.36,-1.7 -8.05,-1.7" style="fill:#100f0d;fill-opacity:1;fill-rule:nonzero;stroke:none" id="path194" />
					<path d="m 2924.41,6271.73 -38.59,10.52 c 10.01,36.71 26.54,67.35 45.57,92.39 11.89,15.66 24.75,29.16 37.63,40.72 7.73,6.93 15.47,13.17 23.03,18.76 40.31,29.79 75.27,41.4 76.6,41.86 l 3,0.99 3.88,1.28 3.26,-1.28 3.49,-1.38 c 0.88,-0.36 18.47,-7.36 42.26,-22.57 12.73,-8.16 27.27,-18.68 41.93,-31.87 12.7,-11.42 25.48,-24.84 37.25,-40.46 15.27,-20.27 28.8,-44.3 37.9,-72.25 0.97,-2.97 1.88,-5.99 2.75,-9.05 l -38.5,-10.87 c -2.47,8.73 -5.45,17.03 -8.86,24.92 -6.77,15.68 -15.21,29.72 -24.57,42.29 -14.06,18.88 -30.22,34.36 -45.64,46.6 -21.9,17.4 -42.29,28.17 -52.47,33.03 -1.18,-0.48 -2.49,-1.04 -3.92,-1.66 -7.18,-3.12 -17.45,-8.04 -29.27,-15 -23.68,-13.93 -53.49,-36.07 -77.9,-68.25 -16.29,-21.47 -30.26,-47.36 -38.83,-78.72 M 3081.2,6438 v 0 0 m -13.63,0.39 v 0 0" style="fill:#100f0d;fill-opacity:1;fill-rule:nonzero;stroke:none" id="path196" />
					<path d="m 3967.99,3356.94 c -2.93,3.32 -6.23,7.17 -9.77,11.44 -4.12,5 -8.56,10.57 -13.1,16.6 v 0 c -0.49,0.66 -0.99,1.32 -1.48,1.99 -8.98,12.06 -18.24,25.87 -26.14,40.56 -5.23,9.73 -1.57,21.85 8.16,27.08 3.01,1.62 6.25,2.38 9.44,2.38 7.13,0 14.03,-3.82 17.64,-10.54 10.04,-18.74 23.79,-37.33 35.21,-51.25 6.32,-7.7 11.92,-14 15.81,-18.23 -10.53,-0.33 -20.03,-4.91 -27.13,-11 -3.19,-2.74 -6.05,-5.77 -8.64,-9.03" style="fill:#100f0d;fill-opacity:1;fill-rule:nonzero;stroke:none" id="path198" />
					<path d="m 4005.12,3216.99 -0.49,0.14 c -0.66,0.24 -2.53,1.36 -4.81,4.15 -3.44,4.11 -7.42,11.68 -10.18,21.42 -2.8,9.73 -4.53,21.57 -4.52,34.29 -0.06,19.37 4.1,36.77 9.6,47.62 2.7,5.44 5.69,9.13 7.75,10.82 1.02,0.87 1.77,1.27 2.16,1.42 l 0.49,0.14 v 20 0 -20 l 0.48,-0.14 c 0.66,-0.24 2.53,-1.36 4.82,-4.15 3.44,-4.11 7.42,-11.68 10.18,-21.42 2.8,-9.73 4.53,-21.57 4.52,-34.29 0.06,-19.37 -4.11,-36.77 -9.61,-47.62 -2.69,-5.44 -5.68,-9.13 -7.74,-10.82 -1.03,-0.87 -1.77,-1.27 -2.17,-1.42 l -0.48,-0.14" style="fill:#ffffff;fill-opacity:1;fill-rule:nonzero;stroke:none" id="path200" />
					<path d="m 4005.24,3176.99 c -0.04,0 -0.08,0 -0.12,0 -0.04,0 -0.08,0 -0.12,0 -0.48,0 -0.95,0.01 -1.41,0.03 -10.46,0.38 -19.9,4.94 -26.96,10.99 -2.52,2.14 -4.83,4.48 -6.95,6.97 -4.21,4.93 -7.71,10.49 -10.73,16.5 -3.15,6.35 -5.79,13.26 -7.89,20.62 -3.87,13.62 -5.9,28.79 -5.94,44.89 0.01,18.6 2.78,35.99 7.88,51.13 0.77,2.24 1.59,4.44 2.46,6.59 3.31,8.21 7.37,15.71 12.53,22.23 2.59,3.26 5.45,6.29 8.64,9.03 7.1,6.09 16.6,10.67 27.13,11 0.41,0.01 0.82,0.02 1.24,0.02 0.04,0 0.08,0 0.12,0 v -1.49 -18.51 -20 l -0.49,-0.14 c -0.39,-0.15 -1.14,-0.55 -2.16,-1.42 -2.06,-1.69 -5.05,-5.38 -7.75,-10.82 -5.5,-10.85 -9.66,-28.25 -9.6,-47.62 -0.01,-12.72 1.72,-24.56 4.52,-34.29 2.76,-9.74 6.74,-17.31 10.18,-21.42 2.28,-2.79 4.15,-3.91 4.81,-4.15 l 0.49,-0.14 0.48,0.14 c 0.4,0.15 1.14,0.55 2.17,1.42 2.06,1.69 5.05,5.38 7.74,10.82 5.5,10.85 9.67,28.25 9.61,47.62 0.01,12.72 -1.72,24.56 -4.52,34.29 -2.76,9.74 -6.74,17.31 -10.18,21.42 -2.29,2.79 -4.16,3.91 -4.82,4.15 l -0.48,0.14 v 20 18.51 1.49 c 0.04,0 0.08,0 0.12,0 11.02,0 20.99,-4.69 28.37,-11.02 7.51,-6.4 13.13,-14.43 17.68,-23.47 2.06,-4.15 3.89,-8.53 5.51,-13.12 4.45,-12.68 7.17,-26.96 8.03,-42.26 0.13,-2.34 0.21,-4.7 0.26,-7.08 0.02,-1.02 0.03,-2.03 0.03,-3.05 -0.01,-18.6 -2.78,-35.99 -7.89,-51.13 -3.45,-10.05 -7.81,-19.22 -13.64,-27.07 -2.93,-3.95 -6.24,-7.56 -9.98,-10.78 -7.38,-6.32 -17.34,-11.02 -28.37,-11.02" style="fill:#100f0d;fill-opacity:1;fill-rule:nonzero;stroke:none" id="path202" />
					<path d="m 3065.14,5256.99 c -0.33,0 -0.67,0.01 -1,0.03 -106.22,5.1 -161.18,33.26 -182.35,47.44 -6.32,4.23 -9.63,7.22 -10.39,7.97 -7.1,6.69 -8.22,17.35 -3.17,25.29 0.67,1.05 1.45,2.05 2.33,2.99 3.94,4.17 9.24,6.28 14.56,6.28 4.86,0 9.73,-1.76 13.58,-5.31 l 0.04,-0.04 1.01,-0.83 c 1.05,-0.83 2.88,-2.2 5.57,-3.95 5.39,-3.5 14.23,-8.56 27.23,-13.93 14.19,-5.86 33.35,-12.11 58.39,-17.1 20.81,-4.15 45.69,-7.42 75.16,-8.86 7.04,-0.35 13.05,-4.3 16.34,-9.98 1.86,-3.22 2.85,-6.99 2.65,-10.98 -0.52,-10.7 -9.36,-19.02 -19.95,-19.02" style="fill:#100f0d;fill-opacity:1;fill-rule:nonzero;stroke:none" id="path204" />
					<path d="m 1753.6,266.988 c -8.85,0 -16.93,5.903 -19.32,14.852 l -0.07,0.269 -0.27,0.969 c -0.24,0.871 -0.61,2.184 -1.1,3.91 -0.99,3.442 -2.48,8.5 -4.46,14.891 -3.97,12.762 -9.91,30.801 -17.72,51.641 -15.59,41.671 -38.82,94.621 -68.19,138.73 -19.52,29.43 -41.81,54.75 -65.19,70.469 -9.15,6.191 -11.56,18.621 -5.37,27.769 3.86,5.723 10.17,8.813 16.59,8.813 3.85,0 7.74,-1.11 11.17,-3.43 29.78,-20.18 54.71,-49.359 76.11,-81.473 21.37,-32.14 39.12,-67.378 53.46,-100.179 28.62,-65.578 43.52,-121.469 43.69,-122.071 2.85,-10.679 -3.5,-21.636 -14.17,-24.48 -1.73,-0.469 -3.46,-0.68 -5.16,-0.68" style="fill:#96dabd;fill-opacity:1;fill-rule:nonzero;stroke:none" id="path206" />
					<path d="m 1853.19,266.988 c -11.05,0 -20,8.961 -20,20 v 376.66 c 0,11.051 8.95,20 20,20 11.04,0 20,-8.949 20,-20 v -376.66 c 0,-11.039 -8.96,-20 -20,-20" style="fill:#96dabd;fill-opacity:1;fill-rule:nonzero;stroke:none" id="path208" />
					<path d="m 1973.79,266.988 c -1.33,0 -2.68,0.133 -4.04,0.41 -10.82,2.223 -17.79,12.793 -15.57,23.61 0.06,0.293 5.81,28.312 16.63,68.461 10.84,40.172 26.71,92.429 47.27,141.539 13.73,32.754 29.48,64.101 47.81,89.883 3.9,5.48 10.06,8.41 16.31,8.41 4.01,0 8.06,-1.211 11.58,-3.711 9,-6.41 11.1,-18.891 4.69,-27.891 -14.72,-20.66 -28.68,-47.519 -41.04,-76.347 -12.39,-28.84 -23.25,-59.661 -32.31,-88.481 -18.14,-57.641 -29.07,-107.242 -31.32,-117.82 -0.3,-1.41 -0.43,-2.082 -0.44,-2.082 v 0 c -1.94,-9.461 -10.27,-15.981 -19.57,-15.981" style="fill:#96dabd;fill-opacity:1;fill-rule:nonzero;stroke:none" id="path210" />
					<path d="m 4793.17,226.988 c -8.84,0 -16.92,5.903 -19.31,14.852 l -0.07,0.269 -0.27,0.969 c -0.24,0.871 -0.61,2.184 -1.1,3.902 -0.99,3.45 -2.48,8.508 -4.46,14.899 -3.97,12.762 -9.91,30.801 -17.72,51.641 -15.59,41.671 -38.82,94.621 -68.18,138.73 -19.53,29.43 -41.82,54.75 -65.2,70.469 -9.15,6.191 -11.56,18.621 -5.38,27.769 3.87,5.723 10.18,8.813 16.6,8.813 3.85,0 7.74,-1.11 11.17,-3.43 29.78,-20.191 54.71,-49.359 76.11,-81.473 21.37,-32.14 39.12,-67.378 53.46,-100.179 28.62,-65.578 43.52,-121.469 43.69,-122.071 v -0.007 c 2.85,-10.672 -3.5,-21.629 -14.17,-24.473 -1.73,-0.457 -3.46,-0.68 -5.17,-0.68" style="fill:#96dabd;fill-opacity:1;fill-rule:nonzero;stroke:none" id="path212" />
					<path d="m 4893.19,226.988 c -11.05,0 -20,8.953 -20,20 V 623.23 c 0,11.051 8.95,20 20,20 11.04,0 20,-8.949 20,-20 V 246.988 c 0,-11.047 -8.96,-20 -20,-20" style="fill:#96dabd;fill-opacity:1;fill-rule:nonzero;stroke:none" id="path214" />
					<path d="m 5013.79,226.988 c -1.33,0 -2.68,0.133 -4.04,0.41 -10.82,2.223 -17.79,12.793 -15.57,23.61 0.06,0.293 5.81,28.312 16.63,68.461 10.84,40.172 26.71,92.429 47.27,141.539 13.73,32.754 29.48,64.101 47.81,89.883 3.9,5.48 10.05,8.41 16.31,8.41 4.01,0 8.06,-1.211 11.58,-3.711 9,-6.41 11.1,-18.891 4.69,-27.891 -14.72,-20.66 -28.68,-47.519 -41.04,-76.347 -12.39,-28.84 -23.25,-59.661 -32.31,-88.481 -18.14,-57.641 -29.07,-107.242 -31.32,-117.82 -0.3,-1.41 -0.44,-2.071 -0.44,-2.082 -1.94,-9.461 -10.27,-15.981 -19.57,-15.981" style="fill:#96dabd;fill-opacity:1;fill-rule:nonzero;stroke:none" id="path216" />
					<path d="M 1430.42,4866.99 H 977.25 c -13.094,0 -25.715,2.11 -37.555,6.01 4.828,15.84 13.27,30.07 24.356,41.73 17.961,18.83 42.549,30.71 70.059,31.6 6.41,0.21 12.28,3.43 15.89,8.74 3.61,5.3 4.46,11.95 2.3,17.99 -5.22,14.6 -7.69,29.5 -7.69,44.18 -0.01,26.48 8.06,52.29 22.56,73.77 14.51,21.49 35.3,38.61 60.97,48.16 14.32,5.32 28.88,7.82 43.23,7.82 51.47,-0.03 100.13,-32.31 118.94,-85.16 1.89,-5.32 5.97,-9.61 11.19,-11.77 2.44,-1.02 5.05,-1.52 7.65,-1.52 2.94,0 5.88,0.64 8.58,1.93 11.96,5.67 24.71,8.45 37.52,8.46 13.95,-0.01 27.95,-3.32 40.92,-9.93 v 0 0 l -0.11,0.06 c 24.26,-12.53 41.93,-36.03 47.47,-63.97 1.89,-9.5 10.27,-16.1 19.61,-16.1 1.26,0 2.53,0.12 3.81,0.36 7.46,1.45 15.49,2.2 22.99,2.2 0.02,0 0.04,0 0.06,0 v 20 20 c -4.03,0 -8.1,-0.15 -12.2,-0.46 -11.05,31.66 -33.59,58.1 -63.37,73.5 l -0.1,0.05 c -18.54,9.45 -38.79,14.29 -59.08,14.29 -0.01,0 -0.01,0 -0.02,0 -11.81,0 -23.66,-1.65 -35.17,-4.96 -28.63,57.82 -86.87,93.02 -148.62,93.02 -0.03,0 -0.04,0 -0.07,0 0,0 -0.01,0 -0.02,0 -19.01,0 -38.35,-3.34 -57.14,-10.33 -33.8,-12.55 -61.3,-35.23 -80.2,-63.28 -18.92,-28.06 -29.39,-61.55 -29.4,-96.14 0,-11.25 1.11,-22.62 3.41,-33.94 -28.399,-6.06 -53.665,-20.71 -72.938,-40.99 -13.594,-14.27 -24.309,-31.39 -31.203,-50.34 -29.188,22.38 -48.246,57.78 -48.738,97.76 -0.012,0.61 -0.02,1.22 -0.024,1.83 v 1.1 c 0.289,66.68 52.594,121.55 118.352,123.66 -27.696,77.41 11.328,163.37 87.711,191.59 16.56,6.16 33.51,9.08 50.19,9.08 59.83,0 116.13,-37.6 137.78,-98.46 14.67,6.96 30.38,10.4 46.1,10.4 17.12,0 34.24,-4.08 50,-12.11 29.79,-15.4 51.19,-44.05 57.9,-77.83 8.82,1.71 18.04,2.56 26.85,2.56 74.28,0 134.7,-61.58 135.12,-137.28 0,-4.06 -0.17,-8.07 -0.51,-12.04 -22.1,12.31 -47.53,19.32 -74.54,19.32 -0.02,0 -0.04,0 -0.07,0 v -20 -20 c 24.11,-0.01 46.29,-7.43 64.7,-20.23 -20.38,-49.49 -68.41,-84.33 -124.28,-84.33" style="fill:#abd9f4;fill-opacity:1;fill-rule:nonzero;stroke:none" id="path218" />
					<path d="m 1490.47,4696.99 c -0.02,0 -0.03,0 -0.05,0 h -453.17 c -38.895,-0.01 -74.344,16.01 -99.937,41.76 -25.622,25.72 -41.684,61.39 -42.172,100.7 -0.016,0.89 -0.024,1.78 -0.024,2.66 -0.004,17.47 3.09,34.28 8.762,49.86 6.894,18.95 17.609,36.07 31.203,50.34 19.273,20.28 44.539,34.93 72.938,40.99 -2.3,11.32 -3.41,22.69 -3.41,33.94 0.01,34.59 10.48,68.08 29.4,96.14 18.9,28.05 46.4,50.73 80.2,63.28 18.79,6.99 38.13,10.33 57.14,10.33 0.01,0 0.02,0 0.02,0 0.03,0 0.04,0 0.07,0 61.75,0 119.99,-35.2 148.62,-93.02 11.51,3.31 23.36,4.96 35.17,4.96 0.01,0 0.01,0 0.02,0 20.29,0 40.54,-4.84 59.08,-14.29 l 0.1,-0.05 c 29.78,-15.4 52.32,-41.84 63.37,-73.5 4.1,0.31 8.17,0.46 12.2,0.46 v -20 -20 c -0.02,0 -0.04,0 -0.06,0 -7.5,0 -15.53,-0.75 -22.99,-2.2 -1.28,-0.24 -2.55,-0.36 -3.81,-0.36 -9.34,0 -17.72,6.6 -19.61,16.1 -5.54,27.94 -23.21,51.44 -47.47,63.97 l 0.11,-0.06 c -12.97,6.61 -26.97,9.92 -40.92,9.93 -12.81,-0.01 -25.56,-2.79 -37.52,-8.46 -2.7,-1.29 -5.64,-1.93 -8.58,-1.93 -2.6,0 -5.21,0.5 -7.65,1.52 -5.22,2.16 -9.3,6.45 -11.19,11.77 -18.81,52.85 -67.47,85.13 -118.94,85.16 -14.35,0 -28.91,-2.5 -43.23,-7.82 -25.67,-9.55 -46.46,-26.67 -60.97,-48.16 -14.5,-21.48 -22.57,-47.29 -22.56,-73.77 0,-14.68 2.47,-29.58 7.69,-44.18 2.16,-6.04 1.31,-12.69 -2.3,-17.99 -3.61,-5.31 -9.48,-8.53 -15.89,-8.74 -27.51,-0.89 -52.098,-12.77 -70.059,-31.6 -11.086,-11.66 -19.528,-25.89 -24.356,-41.73 -2.976,-9.76 -4.578,-20.14 -4.578,-30.89 l 0.02,-2.01 v -0.12 c 0.359,-28.67 11.988,-54.36 30.527,-73.01 18.574,-18.62 43.756,-29.97 71.586,-29.98 h 453.17 c 31.55,0.01 60.04,13.01 80.93,34.26 20.83,21.25 33.74,50.49 33.77,82.93 -0.2,32.79 -13.15,62.06 -33.97,83.26 -5.06,5.13 -10.56,9.78 -16.45,13.88 -18.41,12.8 -40.59,20.22 -64.7,20.23 v 20 20 c 0.03,0 0.05,0 0.07,0 27.01,0 52.44,-7.01 74.54,-19.32 12.95,-7.22 24.76,-16.25 35.07,-26.75 27.95,-28.41 45.21,-67.77 45.44,-111.1 v -0.11 c 0,-43.22 -17.29,-82.59 -45.22,-111.03 -27.89,-28.46 -66.72,-46.25 -109.43,-46.25 m -595.329,142.36 v 0 0" style="fill:#100f0d;fill-opacity:1;fill-rule:nonzero;stroke:none" id="path220" />
					<path d="m 4866.86,3831.18 c -26.41,35.01 -45.47,67.48 -58.87,97.26 1.72,0.72 3.36,1.68 4.88,2.9 v 0.01 l 53.65,43.16 c 0.12,-3.64 0.17,-7.32 0.17,-11.05 0,-15.58 -0.98,-31.99 -3.15,-49.26 -1.38,-10.96 6.38,-20.96 17.34,-22.34 0.85,-0.11 1.69,-0.16 2.52,-0.16 9.94,0 18.55,7.39 19.82,17.51 2.38,18.9 3.47,36.98 3.47,54.25 0.01,5.17 -0.09,10.26 -0.28,15.28 l 51.69,-35.69 c 2.04,-1.41 4.26,-2.39 6.53,-2.96 -25.92,-85.62 -97.77,-108.91 -97.77,-108.91 m -73.63,135.7 c -10.47,33.07 -13.82,62.2 -13.02,87.2 0.62,-0.06 1.25,-0.09 1.88,-0.09 3.51,0 7.06,0.92 10.29,2.86 l 50.92,30.62 c 7.78,-19.22 14.34,-40.99 18.51,-65.41 l -68.58,-55.18 m 179.44,14.72 -71.85,49.6 c -3.66,20.57 -8.84,39.53 -14.99,56.88 l 54.33,-12.6 c 1.52,-0.36 3.04,-0.53 4.54,-0.53 4.01,0 7.85,1.22 11.08,3.37 11.17,-19.83 18.22,-44.16 18.03,-73.94 -0.05,-7.93 -0.44,-15.52 -1.14,-22.78 m -185.79,118.62 c 6.07,22.78 15.03,39.56 21.89,50.07 2.56,-3.57 5.15,-7.35 7.73,-11.33 3.12,-4.82 6.24,-9.93 9.31,-15.33 l -38.93,-23.41 m 130.81,21.53 -51.84,12.03 c -3.9,7.42 -7.91,14.39 -11.96,20.92 18.85,-6.17 42.5,-16.41 63.8,-32.95" style="fill:#54bea3;fill-opacity:1;fill-rule:nonzero;stroke:none" id="path222" />
					<path d="m 4883.4,3891.7 c -0.83,0 -1.67,0.05 -2.52,0.16 -10.96,1.38 -18.72,11.38 -17.34,22.34 2.17,17.27 3.15,33.68 3.15,49.26 0,3.73 -0.05,7.41 -0.17,11.05 l 21.25,17.1 18.64,-12.87 c 0.19,-5.02 0.29,-10.11 0.28,-15.28 0,-17.27 -1.09,-35.35 -3.47,-54.25 -1.27,-10.12 -9.88,-17.51 -19.82,-17.51 m -21.59,130.36 c -4.17,24.42 -10.73,46.19 -18.51,65.41 l 12.58,7.56 29.95,-6.95 c 6.15,-17.35 11.33,-36.31 14.99,-56.88 l -2.6,1.8 c -3.44,2.38 -7.41,3.55 -11.37,3.55 -4.44,0 -8.87,-1.48 -12.53,-4.43 l -12.51,-10.06 m -36,101.57 c -3.07,5.4 -6.19,10.51 -9.31,15.33 -2.58,3.98 -5.17,7.76 -7.73,11.33 -21.99,30.68 -42.29,46.45 -43.42,47.31 v 0 c -8.86,6.6 -10.69,19.12 -4.09,27.98 3.92,5.27 9.95,8.06 16.05,8.06 4.16,0 8.35,-1.29 11.93,-3.96 1.31,-1 30.36,-22.8 59.45,-66.86 1.73,-2.63 3.47,-5.34 5.2,-8.12 4.05,-6.53 8.06,-13.5 11.96,-20.92 l -8.82,2.05 c -1.49,0.34 -3.01,0.51 -4.51,0.51 -3.61,0 -7.18,-0.97 -10.31,-2.85 l -16.4,-9.86" style="fill:#100f0d;fill-opacity:1;fill-rule:nonzero;stroke:none" id="path224" />
					<path d="m 4800.35,3926.93 c -5.85,0 -11.65,2.55 -15.6,7.46 -6.92,8.61 -5.56,21.19 3.05,28.12 l 5.43,4.37 68.58,55.18 12.51,10.06 c 3.66,2.95 8.09,4.43 12.53,4.43 3.96,0 7.93,-1.17 11.37,-3.55 l 2.6,-1.8 71.85,-49.6 8.16,-5.64 c 9.09,-6.27 11.37,-18.73 5.09,-27.82 -3.88,-5.62 -10.12,-8.64 -16.47,-8.64 -1.61,0 -3.23,0.2 -4.82,0.59 -2.27,0.57 -4.49,1.55 -6.53,2.96 l -51.69,35.69 -18.64,12.87 -21.25,-17.1 -53.65,-43.16 v -0.01 c -1.52,-1.22 -3.16,-2.18 -4.88,-2.9 -2.45,-1.01 -5.05,-1.51 -7.64,-1.51" style="fill:#100f0d;fill-opacity:1;fill-rule:nonzero;stroke:none" id="path226" />
					<path d="m 4782.09,4053.99 c -0.63,0 -1.26,0.03 -1.88,0.09 -6.11,0.58 -11.87,3.95 -15.28,9.61 -5.69,9.46 -2.63,21.75 6.84,27.44 l 15.11,9.09 38.93,23.41 16.4,9.86 c 3.13,1.88 6.7,2.85 10.31,2.85 1.5,0 3.02,-0.17 4.51,-0.51 l 8.82,-2.05 51.84,-12.03 31.51,-7.31 c 10.76,-2.5 17.46,-13.24 14.96,-24 -1.2,-5.17 -4.29,-9.39 -8.38,-12.12 -3.23,-2.15 -7.07,-3.37 -11.08,-3.37 -1.5,0 -3.02,0.17 -4.54,0.53 l -54.33,12.6 -29.95,6.95 -12.58,-7.56 -50.92,-30.62 c -3.23,-1.94 -6.78,-2.86 -10.29,-2.86" style="fill:#100f0d;fill-opacity:1;fill-rule:nonzero;stroke:none" id="path228" />
					<path d="m 1171.8,4158.02 c -26.75,2.73 -50.6,11.93 -68.12,20.72 7.65,1.97 15.59,4.3 23.78,7.06 l 44.34,-27.78 m 56.08,5.11 c -1.14,5.01 -4.19,9.59 -8.89,12.53 l -46.28,29 c 16.88,8.46 34.27,18.86 51.75,31.59 l 83.59,-14.49 c -4.66,-5.76 -9.77,-11.56 -15.34,-17.36 -21,-21.83 -43.09,-34.63 -64.83,-41.27 m -151.95,50.34 c 2.74,12.37 8.45,30.71 20.29,51.38 l 10.14,-43.82 c -10.77,-3.29 -20.98,-5.74 -30.43,-7.56 m 68.18,21.86 -13.24,57.2 c -1,4.34 -3.35,8.03 -6.5,10.71 17.16,18.79 40.07,37.69 70.7,54.49 l 8,-87.57 c -20.13,-14.9 -40.02,-26.21 -58.96,-34.83 m 187.5,21.61 c -2.04,1.22 -4.33,2.09 -6.81,2.51 l -60.11,10.42 c 16.08,15.32 31.96,32.88 47.3,53.01 6.7,8.78 5.01,21.33 -3.77,28.03 -3.63,2.76 -7.89,4.1 -12.12,4.1 -6.02,0 -11.98,-2.71 -15.91,-7.87 -13.05,-17.09 -26.41,-32.06 -39.86,-45.18 l -6.13,67.2 c -0.21,2.24 -0.78,4.37 -1.65,6.32 30.35,12.37 66.48,22.72 109.49,29.79 0,0 33.04,-67.54 -10.43,-148.33" style="fill:#54bea3;fill-opacity:1;fill-rule:nonzero;stroke:none" id="path230" />
					<path d="m 1026.46,4168.5 c -12.16,0 -19.36,0.89 -20.1,0.98 -10.958,1.42 -18.692,11.44 -17.278,22.4 1.305,10.09 9.906,17.44 19.808,17.44 0.86,0 1.72,-0.05 2.59,-0.16 l 0.01,-0.01 0.58,-0.06 c 0.58,-0.06 1.52,-0.14 2.8,-0.23 2.56,-0.17 6.49,-0.36 11.59,-0.36 0.02,0 0.03,0 0.04,0 11.39,0 28.56,0.94 49.43,4.97 9.45,1.82 19.66,4.27 30.43,7.56 l 4.09,-17.68 c 1.18,-5.13 4.4,-9.65 8.86,-12.45 l 8.15,-5.1 c -8.19,-2.76 -16.13,-5.09 -23.78,-7.06 -32.79,-8.46 -60,-10.24 -77.22,-10.24 m 146.25,36.16 -25.15,15.75 -3.45,14.92 c 18.94,8.62 38.83,19.93 58.96,34.83 l 1.41,-15.42 c 0.82,-9.02 7.57,-16.34 16.5,-17.89 l 3.48,-0.6 c -17.48,-12.73 -34.87,-23.13 -51.75,-31.59 m 91.98,65.21 -21.77,3.78 -2.59,28.31 c 13.45,13.12 26.81,28.09 39.86,45.18 3.93,5.16 9.89,7.87 15.91,7.87 4.23,0 8.49,-1.34 12.12,-4.1 8.78,-6.7 10.47,-19.25 3.77,-28.03 -15.34,-20.13 -31.22,-37.69 -47.3,-53.01" style="fill:#100f0d;fill-opacity:1;fill-rule:nonzero;stroke:none" id="path232" />
					<path d="m 1321.41,4219.75 c -1.13,0 -2.28,0.09 -3.44,0.29 l -9.92,1.72 -83.59,14.49 -3.48,0.6 c -8.93,1.55 -15.68,8.87 -16.5,17.89 l -1.41,15.42 -8,87.57 -0.71,7.79 c -1,11 7.1,20.73 18.1,21.73 0.62,0.06 1.23,0.09 1.84,0.09 8.01,0 15.1,-4.79 18.25,-11.86 0.87,-1.95 1.44,-4.08 1.65,-6.32 l 6.13,-67.2 2.59,-28.31 21.77,-3.78 60.11,-10.42 c 2.48,-0.42 4.77,-1.29 6.81,-2.51 6.92,-4.11 10.94,-12.2 9.49,-20.61 -1.69,-9.72 -10.14,-16.59 -19.69,-16.58" style="fill:#100f0d;fill-opacity:1;fill-rule:nonzero;stroke:none" id="path234" />
					<path d="m 1208.35,4138.71 c -3.62,0 -7.3,0.99 -10.6,3.06 l -25.95,16.25 -44.34,27.78 -8.15,5.1 c -4.46,2.8 -7.68,7.32 -8.86,12.45 l -4.09,17.68 -10.14,43.82 -4.32,18.67 c -2.49,10.76 4.22,21.5 14.98,23.99 1.52,0.35 3.03,0.52 4.53,0.52 4.82,0 9.4,-1.76 12.96,-4.79 3.15,-2.68 5.5,-6.37 6.5,-10.71 l 13.24,-57.2 3.45,-14.92 25.15,-15.75 46.28,-29 c 4.7,-2.94 7.75,-7.52 8.89,-12.53 1.12,-4.97 0.36,-10.37 -2.56,-15.03 -3.8,-6.06 -10.31,-9.39 -16.97,-9.39" style="fill:#100f0d;fill-opacity:1;fill-rule:nonzero;stroke:none" id="path236" />
				</g>
			</g>
			<g id="g238">
				<g id="g240" clip-path="url(#clipPath244)">
					<path d="m 895.813,6546.99 h -349.7 c 1.977,9.78 6.793,18.51 13.567,25.38 9.043,9.09 21.234,14.61 34.738,14.62 h 364.258 c -11.02,-23.6 -35.004,-40 -62.863,-40 m -390.141,0 h -51.254 c -38.137,0 -69.297,31.47 -69.297,70 v 0 c 0,38.53 31.16,70 69.297,70 h 441.395 c 34.777,0 63.761,-26.17 68.597,-60 H 594.418 c -0.008,0 -0.02,0 -0.023,0 -24.629,0 -47.071,-10.22 -63.141,-26.48 -13.902,-14.03 -23.281,-32.76 -25.582,-53.52" style="fill:#f8bb0a;fill-opacity:1;fill-rule:nonzero;stroke:none" id="path246" />
					<path d="m 1035.81,6446.99 v 0 40 c 13.71,0.01 25.91,5.49 34.9,14.43 8.94,8.97 14.41,21.13 14.41,34.73 v 0.61 0.23 c 0,13.81 -5.55,26.25 -14.56,35.37 -9.05,9.1 -21.25,14.62 -34.75,14.63 H 958.676 594.418 c -13.504,-0.01 -25.695,-5.53 -34.738,-14.62 -6.774,-6.87 -11.59,-15.6 -13.567,-25.38 -0.652,-3.23 -0.992,-6.57 -0.996,-10 0.004,-13.81 5.555,-26.25 14.563,-35.38 9.043,-9.1 21.234,-14.61 34.738,-14.62 h 441.392 v -20 -20 H 594.418 c -24.637,-0.01 -47.09,10.21 -63.164,26.48 -16.106,16.24 -26.141,38.81 -26.137,63.52 0,3.38 0.188,6.71 0.555,10 2.301,20.76 11.68,39.49 25.582,53.52 16.07,16.26 38.512,26.48 63.141,26.48 0.003,0 0.015,0 0.023,0 h 369.992 71.4 c 24.64,0.01 47.09,-10.21 63.17,-26.48 16.11,-16.24 26.14,-38.81 26.14,-63.52 v 0 -0.84 c -0.01,-49.22 -39.95,-89.15 -89.31,-89.16" style="fill:#100f0d;fill-opacity:1;fill-rule:nonzero;stroke:none" id="path248" />
				</g>
			</g>
			<g id="g250">
				<g id="g252" clip-path="url(#clipPath256)">
					<path d="m 6645.12,4946.99 h -147.3 l -115.38,199.99 c -3.57,6.19 -10.17,10.01 -17.32,10.01 v 0 70 h 280 v -280" style="fill:#54bea3;fill-opacity:1;fill-rule:nonzero;stroke:none" id="path258" />
					<path d="m 6451.64,4946.99 h -86.52 v 149.98 l 86.52,-149.98" style="fill:#54bea3;fill-opacity:1;fill-rule:nonzero;stroke:none" id="path260" />
					<path d="m 6515.12,4856.99 h -300 c -7.15,0 -13.75,3.81 -17.32,10 -1.74,3 -2.63,6.35 -2.68,9.7 v 0.6 c 0.05,3.35 0.94,6.69 2.68,9.69 l 149.99,260 c 3.58,6.19 10.18,10.01 17.33,10.01 v 0 c 7.15,0 13.75,-3.82 17.32,-10.01 l 115.38,-199.99 34.62,-60.01 c 3.57,-6.18 3.57,-13.81 0,-19.99 -3.58,-6.19 -10.18,-10 -17.32,-10 m -150,239.98 -115.37,-199.98 h 230.74 l -28.85,50 -86.52,149.98 v 0 m 0,40.02 -17.33,-9.99 17.33,9.99" style="fill:#100f0d;fill-opacity:1;fill-rule:nonzero;stroke:none" id="path262" />
				</g>
			</g>
			<path d="m 328.961,2941.4 c -0.242,0 -0.484,0 -0.723,0 h 1.957 c -0.23,0 -0.465,0 -0.699,0 -0.074,0 -0.152,0 -0.226,0 -0.106,0 -0.207,0 -0.309,0 m -207.359,0 c -0.075,0 -0.153,0 -0.227,0 -0.031,0 -0.062,0 -0.098,0 -0.25,0 -0.5,0 -0.75,0 h 1.774 c -0.231,0 -0.465,0 -0.699,0" style="fill:#ffffff;fill-opacity:1;fill-rule:nonzero;stroke:none" id="path264" />
			<g id="g266">
				<g id="g268" clip-path="url(#clipPath272)">
					<path d="m 330.195,2941.4 h -1.957 c -10.836,0.15 -21.027,3.63 -29.093,8.97 -8.387,5.5 -14.739,12.55 -20.055,19.9 -10.527,14.73 -17.602,31.23 -24.895,45.05 -4.773,9.2 -9.582,17.08 -14.09,22.07 -2.57,2.88 -4.941,4.79 -7.05,5.97 -2.45,1.33 -4.496,1.94 -7.735,1.98 -3.703,-0.06 -5.898,-0.81 -8.832,-2.64 -2.863,-1.85 -6.238,-5.18 -9.734,-10.06 -7.102,-9.7 -14.008,-24.93 -21.961,-40.29 -5.395,-10.26 -11.32,-20.7 -19.566,-29.99 -4.723,-5.29 -10.301,-10.21 -17.075,-14.01 -7.457,-4.22 -16.433,-6.83 -25.851,-6.95 h -1.774 c -11.644,0.13 -23.1559,3.18 -33.8551,8.55 -10.9883,5.51 -21.2422,13.34 -31.0469,23.14 -19.5781,19.64 -37.6836,47.22 -55.62109375,83.03 L 34.8672,3073.55 c 12.5469,-25.12 24.9492,-45.13 36.7656,-59.88 11.8008,-14.8 22.9844,-24.15 32.4762,-28.86 6.364,-3.16 11.875,-4.42 17.266,-4.43 3.703,0.06 5.898,0.81 8.828,2.64 2.867,1.85 6.242,5.18 9.738,10.05 7.098,9.71 14.004,24.94 21.961,40.3 5.395,10.26 11.317,20.7 19.567,29.99 4.719,5.28 10.297,10.21 17.07,14.01 7.641,4.33 16.883,6.95 26.555,6.95 0.074,0 0.148,0 0.226,0 0.102,0 0.207,0 0.309,0 11.105,0 21.574,-3.52 29.816,-8.97 8.391,-5.5 14.739,-12.56 20.055,-19.9 10.527,-14.73 17.602,-31.23 24.898,-45.05 4.774,-9.2 9.582,-17.08 14.09,-22.08 2.567,-2.87 4.942,-4.79 7.047,-5.96 2.449,-1.33 4.496,-1.94 7.735,-1.98 3.699,0.06 5.894,0.81 8.828,2.64 2.859,1.84 6.234,5.18 9.73,10.05 7.102,9.71 14.004,24.94 21.961,40.3 5.395,10.26 11.316,20.7 19.566,29.99 4.719,5.28 10.297,10.21 17.071,14.01 7.64,4.33 16.879,6.95 26.551,6.95 0.078,0 0.152,0 0.226,0 0.035,0 0.067,0 0.098,0 11.902,0 23.679,-3.07 34.605,-8.55 10.992,-5.51 21.246,-13.34 31.055,-23.14 19.578,-19.65 37.684,-47.22 55.621,-83.03 l -34.863,-17.43 c -12.547,25.12 -24.949,45.13 -36.766,59.88 -11.805,14.8 -22.984,24.15 -32.476,28.85 -6.368,3.17 -11.883,4.42 -17.274,4.44 -3.699,-0.06 -5.894,-0.81 -8.828,-2.64 -2.863,-1.85 -6.238,-5.18 -9.738,-10.06 -7.098,-9.7 -14,-24.93 -21.957,-40.29 -5.395,-10.26 -11.317,-20.7 -19.563,-29.99 -4.719,-5.29 -10.297,-10.21 -17.07,-14.01 -7.453,-4.22 -16.434,-6.83 -25.852,-6.95" style="fill:#96dabd;fill-opacity:1;fill-rule:nonzero;stroke:none" id="path274" />
				</g>
			</g>
		</g>
	</g>
</svg>
